<svg width="72" height="82" viewBox="0 0 72 82" fill="none" xmlns="http://www.w3.org/2000/svg">
<path d="M1.12606 0C0.511845 0 0 0.511848 0 1.12607V9.00853V34.8739C0 35.4882 0.511845 36 1.12606 36H7.88246C8.49668 36 9.00853 35.4882 9.00853 34.8739V10.1005C9.00853 9.48626 9.52038 8.97441 10.1346 8.97441H29.4142C30.0284 8.97441 30.5403 8.46256 30.5403 7.84834V1.12607C30.5403 0.511848 30.0284 0 29.4142 0H9.00853H1.12606Z" fill="#00D3F2"/>
<path d="M62.309 63.6057L54.6312 71.2834C54.2218 71.6929 53.6417 71.9318 53.0274 71.9318H44.0189H40.6407C40.0265 71.9318 39.5146 72.4436 39.5146 73.0578V79.8142C39.5146 80.4285 40.0265 80.9403 40.6407 80.9403H44.0189H53.9829H57.5317C58.1118 80.9403 58.6919 80.7014 59.1355 80.292L71.3175 68.11C71.727 67.7005 71.9658 67.1204 71.9658 66.5062V46.0664C71.9658 45.4522 71.454 44.9403 70.8398 44.9403H64.0834C63.4692 44.9403 62.9573 45.4522 62.9573 46.0664V62.0019C62.9573 62.6161 62.7184 63.1962 62.309 63.6057Z" fill="#00D3F2"/>
<path d="M59.1356 0.648341C58.7261 0.238863 58.146 0 57.5318 0H53.9829H40.6749C40.0607 0 39.5488 0.511848 39.5488 1.12607V7.88246C39.5488 8.49668 40.0607 9.00853 40.6749 9.00853H53.0616C53.6417 9.00853 54.2218 9.24739 54.6654 9.65687L62.3431 17.3346C62.7526 17.7441 62.9915 18.3242 62.9915 18.9384V34.8739C62.9915 35.4882 63.5033 36 64.1175 36H70.8739C71.4882 36 72 35.4882 72 34.8739V14.4341C72 13.854 71.7612 13.2739 71.3517 12.8303L59.1356 0.648341Z" fill="#00D3F2"/>
<path d="M7.88246 44.9744H1.12606C0.511845 44.9744 0 45.4862 0 46.1004V71.9658V79.8483C0 80.4625 0.511845 80.9744 1.12606 80.9744H9.00853H29.4142C30.0284 80.9744 30.5403 80.4625 30.5403 79.8483V73.0919C30.5403 72.4777 30.0284 71.9658 29.4142 71.9658H10.1346C9.52038 71.9658 9.00853 71.454 9.00853 70.8398V46.1004C9.00853 45.4521 8.49668 44.9744 7.88246 44.9744Z" fill="#00D3F2"/>
</svg>
