<svg width="50" height="57" viewBox="0 0 50 57" fill="none" xmlns="http://www.w3.org/2000/svg">
<g clip-path="url(#clip0_62_24)">
<path d="M0.781988 0C0.355448 0 0 0.35545 0 0.78199V6.25592V24.218C0 24.6445 0.355448 25 0.781988 25H5.47393C5.90047 25 6.25592 24.6445 6.25592 24.218V7.01422C6.25592 6.58768 6.61137 6.23223 7.03791 6.23223H20.4265C20.8531 6.23223 21.2085 5.87678 21.2085 5.45024V0.78199C21.2085 0.35545 20.8531 0 20.4265 0H6.25592H0.781988Z" fill="#00D3F2"/>
<path d="M43.2698 44.1706L37.9381 49.5023C37.6537 49.7867 37.2509 49.9526 36.8243 49.9526H30.5684H28.2224C27.7959 49.9526 27.4404 50.308 27.4404 50.7346V55.4265C27.4404 55.853 27.7959 56.2085 28.2224 56.2085H30.5684H37.4878H39.9523C40.3551 56.2085 40.758 56.0426 41.066 55.7583L49.5257 47.2985C49.8101 47.0142 49.976 46.6113 49.976 46.1848V31.9905C49.976 31.5639 49.6205 31.2085 49.194 31.2085H44.502C44.0755 31.2085 43.7201 31.5639 43.7201 31.9905V43.0568C43.7201 43.4834 43.5542 43.8862 43.2698 44.1706Z" fill="#00D3F2"/>
<path d="M41.0667 0.450237C40.7824 0.165877 40.3795 0 39.953 0H37.4885H28.2468C27.8203 0 27.4648 0.35545 27.4648 0.78199V5.47393C27.4648 5.90047 27.8203 6.25592 28.2468 6.25592H36.8487C37.2516 6.25592 37.6544 6.4218 37.9625 6.70616L43.2942 12.0379C43.5786 12.3223 43.7445 12.7251 43.7445 13.1517V24.218C43.7445 24.6445 44.0999 25 44.5265 25H49.2184C49.6449 25 50.0004 24.6445 50.0004 24.218V10.0237C50.0004 9.62085 49.8345 9.21801 49.5502 8.90995L41.0667 0.450237Z" fill="#00D3F2"/>
<path d="M5.47393 31.2322H0.781988C0.355448 31.2322 0 31.5876 0 32.0142V49.9763V55.4502C0 55.8767 0.355448 56.2322 0.781988 56.2322H6.25592H20.4265C20.8531 56.2322 21.2085 55.8767 21.2085 55.4502V50.7582C21.2085 50.3317 20.8531 49.9763 20.4265 49.9763H7.03791C6.61137 49.9763 6.25592 49.6208 6.25592 49.1943V32.0142C6.25592 31.5639 5.90047 31.2322 5.47393 31.2322Z" fill="#00D3F2"/>
</g>
<defs>
<clipPath id="clip0_62_24">
<rect width="50" height="56.3981" fill="white"/>
</clipPath>
</defs>
</svg>
