<svg width="16" height="16" viewBox="0 0 16 16" fill="none" xmlns="http://www.w3.org/2000/svg">
<path d="M10.6507 12.1221C10.4861 12.1221 10.3745 12.1378 10.3164 12.1538V13.2098C10.3852 13.2261 10.47 13.2313 10.5869 13.2313C11.0168 13.2313 11.2824 13.0134 11.2824 12.6476C11.2822 12.3186 11.054 12.1221 10.6507 12.1221Z" fill="black"/>
<path d="M13.6048 3.83441C13.6039 3.76094 13.5806 3.6885 13.5302 3.63121L10.445 0.107305C10.4444 0.106405 10.4434 0.106085 10.4424 0.105156C10.4241 0.0845603 10.4028 0.067625 10.3803 0.0527812C10.3736 0.0483368 10.3668 0.0444152 10.3598 0.0405227C10.3399 0.0298038 10.3193 0.0210602 10.2977 0.0146114C10.2919 0.0128395 10.2869 0.0105446 10.281 0.00894695C10.2576 0.00345678 10.2334 0 10.2091 0H2.62745C2.28157 0 2 0.281626 2 0.627478V15.3725C2 15.7186 2.28154 16 2.62745 16H12.9804C13.3266 16 13.6078 15.7186 13.6078 15.3725V3.86956C13.6078 3.85776 13.606 3.84597 13.6048 3.83441ZM5.97503 13.7993C5.97503 14.8183 5.48676 15.174 4.70114 15.174C4.51546 15.174 4.27136 15.1421 4.11197 15.0891L4.20234 14.4364C4.31386 14.4733 4.45696 14.4999 4.61626 14.4999C4.95601 14.4999 5.16841 14.3461 5.16841 13.7889V11.5382H5.97515V13.7993H5.97503V13.7993ZM7.52434 15.1686C7.11571 15.1686 6.71246 15.0625 6.51086 14.9509L6.67548 14.2822C6.893 14.3937 7.22726 14.5052 7.57224 14.5052C7.94386 14.5052 8.14031 14.3512 8.14031 14.1175C8.14031 13.8946 7.97058 13.7674 7.54066 13.6134C6.94598 13.4066 6.55873 13.0774 6.55873 12.5573C6.55873 11.9469 7.06825 11.4798 7.91228 11.4798C8.31542 11.4798 8.61244 11.5647 8.8249 11.6603L8.64459 12.313C8.50121 12.2442 8.24663 12.1433 7.89613 12.1433C7.54601 12.1433 7.37628 12.3024 7.37628 12.4881C7.37628 12.7163 7.57784 12.8174 8.03966 12.9922C8.67091 13.2258 8.96857 13.5552 8.96857 14.0594C8.96825 14.659 8.50673 15.1686 7.52434 15.1686ZM11.7546 13.4755C11.478 13.7356 11.0698 13.8523 10.5922 13.8523C10.4859 13.8523 10.3903 13.8471 10.3161 13.8362V15.1153H9.51466V11.5859C9.76375 11.5435 10.1145 11.5116 10.6078 11.5116C11.1069 11.5116 11.4626 11.6069 11.7013 11.7981C11.9298 11.9783 12.0836 12.2757 12.0836 12.6259C12.0836 12.9761 11.9669 13.2737 11.7546 13.4755ZM2.62745 10.6538V0.627594H9.89551V3.83801C9.89551 4.01117 10.0358 4.15173 10.2092 4.15173H12.9804L12.9807 10.6538H2.62745Z" fill="black"/>
<path d="M7.27776 5.93962C7.27776 5.93962 6.85594 5.12719 6.87143 4.53382C6.88275 4.10979 7.839 3.69054 8.21486 3.08185C8.58895 2.47279 8.16754 1.87988 8.16754 1.87988C8.16754 1.87988 8.26143 2.31701 8.01161 2.76976C7.76197 3.22248 6.83979 3.48833 6.48104 4.2686C6.12276 5.04922 7.27776 5.93962 7.27776 5.93962Z" fill="black"/>
<path d="M8.85554 3.47266C8.85554 3.47266 7.41895 4.019 7.41895 4.64328C7.41895 5.26803 7.80918 5.47096 7.87184 5.67375C7.93424 5.87703 7.76276 6.22039 7.76276 6.22039C7.76276 6.22039 8.32488 5.83029 8.23053 5.37696C8.13676 4.92407 7.69958 4.78368 7.94958 4.33101C8.11655 4.02777 8.85554 3.47266 8.85554 3.47266Z" fill="black"/>
<path d="M7.1215 6.76451C8.6035 6.71149 8.77782 6.43248 8.93254 6.29836C8.07407 6.5322 5.79462 6.51719 5.77813 6.34522C5.76302 6.17343 6.48072 6.03271 6.48072 6.03271C6.48072 6.03271 5.35695 6.03271 5.26312 6.31382C5.16909 6.59533 5.79492 6.81101 7.1215 6.76451Z" fill="black"/>
<path d="M9.15089 6.06454C9.15089 6.06454 9.79121 6.06454 9.85355 6.45478C9.9156 6.84493 9.04199 7.42253 9.04199 7.42253C9.04199 7.42253 10.4181 7.14535 10.2901 6.43962C10.1342 5.58091 9.15089 6.06454 9.15089 6.06454Z" fill="black"/>
<path d="M7.58859 7.18856C6.9384 7.26173 6.15269 7.20395 6.08974 7.09427C6.02848 6.98496 6.19975 6.92285 6.19975 6.92285C5.41826 7.11056 5.84527 7.43762 6.76071 7.50089C7.54531 7.55434 8.42208 7.26635 8.42208 7.26635L8.69247 7.04799C8.69261 7.04802 8.07402 7.13395 7.58859 7.18856Z" fill="black"/>
<path d="M6.38753 7.73022C6.38753 7.73022 6.03328 7.7401 6.01274 7.92767C5.99183 8.11396 6.12266 8.20862 6.99865 8.18794C8.04138 8.16313 8.21526 8.03904 8.32262 7.94876L8.5766 7.75733C7.89523 7.84566 7.84254 7.86969 7.45622 7.88064C7.06767 7.89191 6.38729 7.91657 6.35627 7.84459C6.32472 7.7715 6.38753 7.73022 6.38753 7.73022Z" fill="black"/>
<path d="M9.79172 8.57359C9.92679 8.42745 9.74974 8.313 9.74974 8.313C9.74974 8.313 9.81208 8.38608 9.72953 8.4691C9.64621 8.55212 8.8861 8.76017 7.6678 8.82248C6.45029 8.88546 5.12806 8.70837 5.08603 8.55212C5.04588 8.39587 5.76332 8.27148 5.76332 8.27148C5.68039 8.28188 4.68068 8.30271 4.64882 8.57356C4.61855 8.84406 5.086 9.06222 6.96038 9.06222C8.83431 9.06224 9.65693 8.71848 9.79172 8.57359Z" fill="black"/>
<path d="M9.06277 9.18704C8.24018 9.35386 5.74316 9.24879 5.74316 9.24879C5.74316 9.24879 7.36611 9.63374 9.21903 9.31128C10.1046 9.15717 10.1562 8.72827 10.1562 8.72827C10.1562 8.72827 9.88508 9.02021 9.06277 9.18704Z" fill="black"/>
</svg>
