<svg xmlns="http://www.w3.org/2000/svg" id="logo_vertical" width="18" height="28" viewBox="0 0 18 28">
    <defs>
        <clipPath id="clip-path">
            <path id="Clip_2" d="M0 0h17.585v22.587H0z" class="cls-1"/>
        </clipPath>
        <clipPath id="clip-path-2">
            <path id="Clip_5" d="M0 0h8.62v13.292H0z" class="cls-1"/>
        </clipPath>
        <clipPath id="clip-path-3">
            <path id="Clip_18" d="M0 0h5.365v3.743H0z" class="cls-1"/>
        </clipPath>
        <style>
            .cls-1{fill:none}.cls-3{fill:#333}
        </style>
    </defs>
    <path id="logo_vertical_blk_background" d="M0 0H18V28H0z" class="cls-1"/>
    <g id="logo_vertical-2" transform="translate(.22 .059)">
        <g id="Group_36">
            <g id="Group_3">
                <path id="Clip_2-2" d="M0 0h17.585v22.587H0z" class="cls-1"/>
                <g id="Group_3-2" clip-path="url(#clip-path)">
                    <path id="Fill_1" d="M16.951 22.587a.348.348 0 0 1-.106-.015.072.072 0 0 1-.045-.041.127.127 0 0 1 .01-.1l-.027-.03-.078-.085a.079.079 0 0 1-.025-.061.055.055 0 0 1 .024-.04.079.079 0 0 0 .033-.08v-.012-.091-.091a.106.106 0 0 1 .045-.108c.038-.026.027-.076 0-.112-.075-.106-.067-.152.036-.224l-.007-.009a.072.072 0 0 0-.018-.017.12.12 0 0 1-.062-.1.081.081 0 0 1 .047-.069c.11-.058.107-.144.1-.235s0-.157 0-.234v-.1-.025a.142.142 0 0 1 .041-.127.04.04 0 0 0 .01-.035.128.128 0 0 1 .086-.16v-.037-.052a.09.09 0 0 1-.064-.03.118.118 0 0 1-.016-.092c.006-.042.038-.06.071-.08a.275.275 0 0 0 .053-.037h-.012l-.049-.014a.082.082 0 0 1-.065-.087v-.024-.119c-.005-.077 0-.143.1-.163l-.016-.02A.088.088 0 0 0 17 19.6a.148.148 0 0 1-.068-.141v-.024a.118.118 0 0 0-.039-.118c0-.02 0-.04-.006-.06a.335.335 0 0 1 .026-.219.126.126 0 0 0 .018-.061c0-.024 0-.049.006-.073a.421.421 0 0 0 0-.157.119.119 0 0 1 .085-.16c-.105-.107-.107-.114-.056-.232a.083.083 0 0 1-.061-.022.1.1 0 0 1-.018-.076v-.041c0-.052.009-.105.01-.158A.312.312 0 0 0 16.89 18a.356.356 0 0 1-.007-.053v-.277a.281.281 0 0 1 .018-.074c0-.012.008-.025.012-.039-.056-.089-.045-.164.03-.21 0-.009 0-.017-.006-.026a.131.131 0 0 1-.007-.056.521.521 0 0 0 0-.179.146.146 0 0 1 .106-.183c-.107-.042-.112-.114-.108-.2v-.134-.134a.208.208 0 0 1 .015-.056.185.185 0 0 0 .015-.06.17.17 0 0 0-.015-.058.17.17 0 0 1-.015-.058v-.187-.186c0-.092 0-.185-.006-.276v-.068a.048.048 0 0 0-.011-.035c-.058-.044-.044-.092-.028-.149 0-.012.007-.023.01-.036h-.134a.076.076 0 0 1-.084-.045.039.039 0 0 0-.028-.015h-.031a.082.082 0 0 1-.078-.053c-.008-.014-.038-.02-.063-.025h-.006c-.068-.013-.079-.019-.082-.087v-.049a.458.458 0 0 0 0-.066.168.168 0 0 1 .095-.2v-.012a.034.034 0 0 0 0-.021.1.1 0 0 1 .016-.124.112.112 0 0 1 .07-.018.194.194 0 0 1 .1.023c.038.023.076.048.114.073l.066.043.02.016a.092.092 0 0 0 .046.026.283.283 0 0 1 .191.092c.016.015.038.035.056.035h.011a.156.156 0 0 1 .12.071.418.418 0 0 0 .032.034c.013.012.015.034.017.062a.442.442 0 0 0 .005.047c.063.063.064.094.012.191a.1.1 0 0 0 0 .1.167.167 0 0 1 .032.117v.383a.085.085 0 0 0 .036.083c.042.029.063.058.063.087s-.025.06-.071.089a.135.135 0 0 0-.022.018l-.007.007c.01.011.022.02.033.03a.176.176 0 0 1 .053.06.044.044 0 0 1 0 .038c-.009.017-.033.023-.057.028l-.023.006a.161.161 0 0 0-.007.056.092.092 0 0 1-.037.09c-.007 0 0 .041.011.057a.129.129 0 0 0 .037.029l.018.012a.128.128 0 0 1 .067.1.134.134 0 0 1-.071.1l-.025.018-.009.007a.146.146 0 0 0 .051.038c.035.019.067.038.051.086a.217.217 0 0 1-.035.058l-.019.027.015.019a.125.125 0 0 1 .035.061c0 .038-.021.073-.075.1a.093.093 0 0 0-.049.133h.014a.15.15 0 0 1 .042.006h.01c.022.007.048.015.055.03.014.03 0 .061-.037.08a.2.2 0 0 1-.033.014h-.011a.482.482 0 0 0 0 .081.19.19 0 0 1-.061.181c.137.044.156.065.153.172 0 .16 0 .162-.145.2a.226.226 0 0 1 .053.189V18.339a1 1 0 0 1 0 .12.33.33 0 0 1-.021.075l-.016.047c.042.029.041.082.04.139v.546a.543.543 0 0 1-.007.075.244.244 0 0 0 .012.154l.025.02a.321.321 0 0 1 .049.043c.023.026.006.051-.011.075a.027.027 0 0 0 0 .03.143.143 0 0 1 .027.106.359.359 0 0 0 0 .042c.006.064 0 .134-.1.154a.223.223 0 0 1 .1.186.169.169 0 0 1-.1.132.1.1 0 0 0 .043.112.111.111 0 0 1 .053.088.124.124 0 0 1-.061.1c-.112.078-.126.145-.054.255a.1.1 0 0 1 .016.043v.192l-.077.02-.046.012c.01.038.037.039.063.04a.074.074 0 0 1 .054.016v.029a.126.126 0 0 1-.03.133.074.074 0 0 0-.012.045v.008c-.008.08-.008.08-.068.124a.126.126 0 0 1 .071.093.181.181 0 0 1-.082.142.121.121 0 0 1-.036.152.165.165 0 0 0-.032.067c0 .011-.006.021-.01.031l.013.005h.008l.009-.01.012-.014a.051.051 0 0 1 .042-.024.054.054 0 0 1 .029.009.1.1 0 0 1 .041.056.415.415 0 0 1 0 .1v.015c0 .074-.018.094-.069.094a.409.409 0 0 1-.067-.007c0 .014-.006.028-.01.042a.169.169 0 0 0 0 .125.041.041 0 0 1 0 .042.068.068 0 0 1-.058.024h-.074a.129.129 0 0 1 .012.1.046.046 0 0 1-.033.023.454.454 0 0 1-.087.022zm-6.761-.858a.39.39 0 0 1-.064-.007h-.029a.07.07 0 0 1-.049-.027.084.084 0 0 1-.011-.068c0-.01-.006-.022-.013-.032l-.036-.046a.46.46 0 0 1-.069-.1.163.163 0 0 1 .006-.128.226.226 0 0 0 .028-.117c0-.1.018-.117.132-.135a.276.276 0 0 1 .148-.171l.062-.043a.525.525 0 0 1 .071-.044l.047-.027c.009-.006.024-.02.022-.03-.006-.061.034-.1.073-.129l.029-.026c.051-.05.106-.1.159-.146l.081-.073.01-.009c.015-.013.032-.028.033-.043 0-.074.058-.1.113-.131l.02-.01h.007a.2.2 0 0 0 .1-.082.044.044 0 0 1 .019-.022.391.391 0 0 0 .155-.15.79.79 0 0 1 .061-.08s.007-.006.007-.01c0-.056.035-.082.105-.082a.11.11 0 0 0 .006-.042.135.135 0 0 1 .015-.078.171.171 0 0 1 .074-.045l.044-.02.008-.034.009-.042h.046l.084-.009a.194.194 0 0 1 .067-.149.168.168 0 0 1 .121-.036.422.422 0 0 0 .058 0c-.015-.094.034-.14.117-.185a.645.645 0 0 0 .155-.133l.04-.042.016-.016a.4.4 0 0 0 .112-.152c.008-.025.039-.045.07-.063l.027-.017c.019-.013.041-.024.061-.035l.05-.027c.012-.007.027-.019.026-.026a.154.154 0 0 1 .025-.083.135.135 0 0 0 .023-.1.042.042 0 0 1 .008-.036.392.392 0 0 0 .1-.142c.01-.019.019-.038.03-.056a.144.144 0 0 1 .133-.069l-.021-.058-.008-.021.048-.045.149-.1a.156.156 0 0 1 .064-.2.208.208 0 0 0 .045-.047l.028-.034h-.04a.485.485 0 0 0-.062-.005h-.226a.176.176 0 0 0-.128.039.178.178 0 0 1-.115.032.4.4 0 0 1-.228-.071l-.031.027a.333.333 0 0 1-.221.111h-.16a.165.165 0 0 1-.16-.077l-.011.006a.028.028 0 0 0-.011.007.1.1 0 0 0-.013.042c0 .028-.009.054-.046.059h-.026a.5.5 0 0 1-.071.007.143.143 0 0 1-.09-.027.09.09 0 0 0-.053-.021.075.075 0 0 0-.059.037.21.21 0 0 1-.177.092h-.042a.049.049 0 0 0-.031.009.2.2 0 0 1-.151.044h-.029a.091.091 0 0 0-.041.018l-.015.008a.158.158 0 0 1-.084.026.156.156 0 0 1-.084-.026.356.356 0 0 0-.277 0 .2.2 0 0 1-.105.031.185.185 0 0 1-.161-.09.184.184 0 0 1-.092.033.13.13 0 0 1-.092-.05l-.015-.016a.464.464 0 0 0-.126-.1.1.1 0 0 1-.06-.111v-.033a1.177 1.177 0 0 0 0-.187.189.189 0 0 1 .08-.172l.006-.005a.069.069 0 0 1 .035-.022l.058-.005a.81.81 0 0 1 .088-.007.208.208 0 0 1 .154.056.129.129 0 0 0 .079.033h.083a.228.228 0 0 0 .16-.05.068.068 0 0 1 .045-.018.161.161 0 0 1 .1.061.226.226 0 0 1 .169-.085h.025a.057.057 0 0 0 .028-.009l.017-.008.029-.011a.151.151 0 0 1 .053-.015h.011a.313.313 0 0 0 .083.01.878.878 0 0 0 .091-.006h.002a.794.794 0 0 1 .094-.007h.083a.134.134 0 0 0 .11-.044c.012-.014.043-.014.071-.015h.213c.039-.055.073-.078.11-.078a.213.213 0 0 1 .116.051.162.162 0 0 1 .13-.045h.057a.412.412 0 0 0 .051 0 .338.338 0 0 1 .051 0h.1a.117.117 0 0 0 .1-.034c.013-.015.051-.015.076-.015h.277a.126.126 0 0 0 .081-.026.182.182 0 0 1 .14-.048h.064a.1.1 0 0 0 .09-.044.044.044 0 0 1 .039-.02.1.1 0 0 1 .053.018.308.308 0 0 1 .036.03l.021.019a.157.157 0 0 1 .139-.066h.181a.227.227 0 0 1 .2.1.093.093 0 0 0 .081.036h.006c.041 0 .068.018.077.039s0 .047-.023.077-.03.035-.048.054l-.022.024a.124.124 0 0 1 .042.1.136.136 0 0 1-.066.091.038.038 0 0 0-.017.022c0 .074-.056.113-.108.151l-.03.023a.193.193 0 0 0-.073.1v.011c-.017.055-.036.116-.111.128v.039c.007.091.009.119-.121.149V18.073a.107.107 0 0 1-.054.1.235.235 0 0 0-.094.139.243.243 0 0 1-.16.18.148.148 0 0 0-.091.136.173.173 0 0 0 0 .035v.022a.117.117 0 0 1-.065.119c-.069.04-.094.091-.075.15s-.032.093-.088.122h-.007l.07.059.035.029.039.033v.003a.429.429 0 0 0 0 .047.111.111 0 0 0 .095.1.117.117 0 0 1 .112.067.187.187 0 0 0 .051.049l.022.017.079.066c.048.04.1.081.145.123a.112.112 0 0 0 .079.041H13.721a.226.226 0 0 1 .174.071.137.137 0 0 0 .053.028l.032.013-.008.038v.015l.068.04a1.454 1.454 0 0 1 .129.08 1.311 1.311 0 0 1 .1.086l.07.061a.121.121 0 0 0 .042.018l.021.007.027.009a.168.168 0 0 1 .053.023.245.245 0 0 1 .048.049.182.182 0 0 0 .081.067c.01 0 .014.023.017.045s0 .02.006.029a.253.253 0 0 1 .177.074.093.093 0 0 0 .061.023h.028a.137.137 0 0 1 .035 0 .176.176 0 0 1 .111.052l.035.027c.017.013.034.026.05.041l.006.005c.016.014.035.032.034.046a.15.15 0 0 0 .067.129l.016.016a.073.073 0 0 1 0 .123.783.783 0 0 1-.068.051l-.035.024.018.033c.015.029.031.059.048.088a.081.081 0 0 1 .005.08.083.083 0 0 1-.071.038.615.615 0 0 0-.172.042.25.25 0 0 1-.087.013.809.809 0 0 1-.124-.013c-.043-.006-.05-.039-.059-.074a.2.2 0 0 0-.015-.047h-.029a.254.254 0 0 1-.169-.087l-.017-.015-.008-.007c-.017-.015-.037-.032-.053-.032h-.028a.135.135 0 0 1-.1-.051l-.015-.014a.951.951 0 0 0-.252-.172.4.4 0 0 1-.137-.111.269.269 0 0 0-.2-.12.126.126 0 0 1-.09-.039.276.276 0 0 0-.112-.094.41.41 0 0 1-.079-.054.5.5 0 0 0-.241-.122.1.1 0 0 1-.066-.053l-.005-.008-.01-.016a.734.734 0 0 0-.229-.249.141.141 0 0 1-.046-.068c-.007-.015-.014-.031-.023-.047h-.025a.145.145 0 0 1-.111-.055c-.012-.014-.034-.04-.054-.042-.055 0-.082-.035-.115-.1l-.035.039c-.025.028-.045.051-.064.076a1.382 1.382 0 0 1-.228.22l-.051.042a.527.527 0 0 0-.055.057c-.013.014-.025.029-.039.042l-.01.01a.179.179 0 0 1-.117.068.1.1 0 0 1-.026 0l-.067.056c-.052.044-.1.085-.154.123s-.06.064-.049.106a.083.083 0 0 1-.057.1.421.421 0 0 0-.166.165.9.9 0 0 1-.061.083.046.046 0 0 0-.006.028c0 .05-.026.079-.088.087a.383.383 0 0 0-.224.14.9.9 0 0 1-.078.074c-.009.007-.009.022-.01.038a.115.115 0 0 1 0 .033v.014a.219.219 0 0 1-.037.079c-.03.035-.052.055-.079.055a.178.178 0 0 1-.088-.042.028.028 0 0 0-.015 0h-.012a.339.339 0 0 1-.164.2l-.013.01c-.046.034-.069.068-.036.126l-.027.01a.132.132 0 0 1-.042.012.118.118 0 0 0-.1.049.1.1 0 0 1-.093.025zm6.989-8.437h-.143a.108.108 0 0 1-.055-.02c-.011-.006-.022-.023-.019-.032a.1.1 0 0 0-.028-.082c-.024-.035-.049-.07-.012-.119l.054-.013.024-.009c-.113-.05-.107-.127-.1-.209a.516.516 0 0 0 0-.079l-.018-.008c-.04-.018-.081-.036-.08-.1s.049-.087.105-.106a.086.086 0 0 0-.05-.044c-.029-.014-.056-.028-.048-.067a.141.141 0 0 1 .022-.044l.013-.02c-.038-.021-.045-.06-.021-.113h.022l.066-.011v-.04c0-.059-.009-.118-.014-.182-.082-.014-.09-.074-.087-.138v-.248-.077c0-.06.005-.115.086-.132.01 0 .018-.012.028-.024l.018-.021-.077-.008h-.031c-.03-.086-.03-.087.042-.118a.106.106 0 0 0 .077-.1v-.335a.109.109 0 0 0-.015-.042l-.009-.018a.172.172 0 0 0-.011-.021.077.077 0 0 1-.014-.039v-.251a.105.105 0 0 1 .032-.059l.023-.03a.1.1 0 0 1-.049-.132.067.067 0 0 0 0-.037.132.132 0 0 1 0-.025v-.033a.115.115 0 0 1 .031-.111.093.093 0 0 0 .018-.071.209.209 0 0 1 .019-.087c0-.01.008-.02.011-.03a.087.087 0 0 0-.012-.057.147.147 0 0 1-.015-.049v-.2-.083a.054.054 0 0 0 0-.006.024.024 0 0 1 0-.012.229.229 0 0 0 0-.167c-.018-.064.019-.108.12-.143-.085-.02-.136-.052-.122-.149a.249.249 0 0 1-.2.07h-.02a.056.056 0 0 0-.032.019.2.2 0 0 1-.133.064.224.224 0 0 1-.138-.061A.135.135 0 0 0 16.38 9l-.027-.009v.022a.081.081 0 0 1 0 .106.13.13 0 0 1-.078.019.092.092 0 0 1-.067-.018.137.137 0 0 0-.115-.044h-.011a.23.23 0 0 1-.059-.015l-.031-.01c0 .051-.038.072-.08.093a.359.359 0 0 0-.043.025.037.037 0 0 1-.022.005.127.127 0 0 1-.053-.013.244.244 0 0 0-.239 0 .173.173 0 0 1-.078.018.184.184 0 0 1-.14-.063.127.127 0 0 1-.127.06h-.035a.229.229 0 0 0-.055 0 .17.17 0 0 1-.15.09.165.165 0 0 1-.13-.062.068.068 0 0 0-.056-.031h-.029l.015.091v.014l-.054.026a.646.646 0 0 1-.089.04.274.274 0 0 1-.089.018.146.146 0 0 1-.093-.032.111.111 0 0 0-.07-.026.148.148 0 0 0-.069.02.234.234 0 0 1-.1.032H14.2a.129.129 0 0 0-.107.047.528.528 0 0 1-.057.054.094.094 0 0 1-.063.029.1.1 0 0 1-.06-.025l-.01-.011-.01-.011a1.344 1.344 0 0 0-.173-.083.215.215 0 0 1-.044-.022l-.025-.015c.022.082-.038.114-.091.142l-.022.012a.139.139 0 0 1-.069.018.175.175 0 0 1-.115-.047l-.05.013a.6.6 0 0 0-.1.031.163.163 0 0 0-.079.066.124.124 0 0 1-.125.075h-.4a.166.166 0 0 0-.118.036.037.037 0 0 1-.023.006.121.121 0 0 1-.051-.012.24.24 0 0 0-.117-.031.3.3 0 0 0-.122.029.224.224 0 0 1-.091.021.167.167 0 0 1-.091-.028.176.176 0 0 0-.044-.017l-.026-.008a.229.229 0 0 0-.005.045c0 .041 0 .08-.066.087h-.032c-.046 0-.07-.019-.1-.081h-.329a.106.106 0 0 1-.116.081h-.035a.076.076 0 0 0-.066.03.083.083 0 0 1-.053.02.2.2 0 0 0-.1.034.238.238 0 0 1-.1.021h-.047l-.027.031-.049.055-.005.007c-.007.009-.015.019-.023.019h-.014a.471.471 0 0 0-.186.051l-.064.026h-.011a.165.165 0 0 1-.062-.022.376.376 0 0 0-.036-.017h-.01a.42.42 0 0 0-.08-.025c.024.053.036.1-.015.132l-.02.015a.131.131 0 0 1-.077.038.091.091 0 0 1-.052-.019.051.051 0 0 0-.025-.007H10.1a.312.312 0 0 1-.12.027.214.214 0 0 1-.125-.041.068.068 0 0 0-.035-.008h-.043a.187.187 0 0 1-.149-.072h-.14c-.019 0-.042 0-.048-.01a.14.14 0 0 0-.14-.053.332.332 0 0 1-.069 0l-.013-.005h-.01v-.006a.042.042 0 0 1-.008-.035c.013-.064-.036-.1-.075-.124-.073-.051-.073-.051-.04-.137-.054-.006-.1-.017-.108-.076v-.012a.181.181 0 0 1 .044-.171l.08-.073.041-.037c.025-.022.042-.032.057-.032s.035.017.056.058c.042-.039.068-.058.088-.058s.04.026.065.077a.557.557 0 0 1 .264.1.167.167 0 0 0 .083.02h.036a.149.149 0 0 1 .156.074l.039-.025a.283.283 0 0 1 .076-.041.269.269 0 0 1 .076-.007h.056a.118.118 0 0 0 .074-.025.12.12 0 0 1 .112-.042h.063a.154.154 0 0 0 .114-.036.053.053 0 0 1 .035-.009h.259l.01-.071.008-.059h.174a.33.33 0 0 0 .068-.018l.035-.011.019-.006a.221.221 0 0 1 .056-.014h.162c.009-.06.045-.085.118-.085H11.586a.147.147 0 0 0 .118-.045.051.051 0 0 1 .032-.006h.243a.165.165 0 0 1 .056.017l.015.006.041-.008a.837.837 0 0 1 .095-.016h.039A.157.157 0 0 0 12.346 9c.015-.017.052-.018.085-.019h.197a.132.132 0 0 1 .118-.074.109.109 0 0 1 .08.036.115.115 0 0 0 .047.03.091.091 0 0 0 .054-.032.082.082 0 0 1 .056-.031.071.071 0 0 1 .031.008.1.1 0 0 1 .053.119.1.1 0 0 0 .026 0c.045 0 .062-.038.074-.062V8.97a.11.11 0 0 1 .116-.064h.076a.177.177 0 0 0 .124-.039.023.023 0 0 1 .015 0 .137.137 0 0 1 .058.017.33.33 0 0 1 .056.046l.031.028.021-.02a.1.1 0 0 0 .044-.079c0-.041.023-.066.076-.076h.031a.076.076 0 0 1 .078.051.085.085 0 0 0 .021.026l.009.009h.009c.012 0 .019 0 .023-.008a.388.388 0 0 1 .287-.125.069.069 0 0 0 .043-.008.183.183 0 0 1 .132-.046h.151a.077.077 0 0 1 .044.022l.008.006.043-.012a.481.481 0 0 1 .08-.018h.191a.137.137 0 0 0 .133-.059c.012-.019.059-.024.073-.024H15.373a.138.138 0 0 0 .11-.042c.007-.007.019-.01.042-.01h.075a.17.17 0 0 0 .119-.036.132.132 0 0 1 .086-.025.284.284 0 0 1 .173.059L16 8.524a.181.181 0 0 0 .036-.056.081.081 0 0 1 .09-.055h.233a.133.133 0 0 0 .1-.033.073.073 0 0 1 .047-.011H16.834a.215.215 0 0 0 .2-.1c-.079-.035-.086-.1-.08-.174v-.108-.065c0-.1 0-.1.106-.132a.122.122 0 0 0-.049-.032c-.031-.014-.06-.027-.058-.07s.013-.069.081-.1l-.027-.027a.135.135 0 0 1-.048-.066.862.862 0 0 1 0-.187v-.031c0-.014.018-.029.032-.04l.1-.081.071-.058-.04-.011c-.057-.014-.1-.025-.116-.072a.066.066 0 0 1 .011-.041c0-.007.007-.015.01-.023-.085 0-.084-.061-.084-.116v-.004-.029c0-.052 0-.1.063-.123-.012-.106-.012-.106.053-.168l-.035-.006-.06-.01c-.021-.065-.029-.107-.012-.134s.058-.038.119-.048l-.014-.013a.258.258 0 0 0-.04-.022c-.035-.015-.054-.03-.061-.048a.079.079 0 0 1 .01-.063.055.055 0 0 0 0-.057.148.148 0 0 1-.011-.1.124.124 0 0 0 0-.106.055.055 0 0 1 .007-.054.523.523 0 0 1 .1-.092.1.1 0 0 1 .05-.009h.038l-.019-.033a.193.193 0 0 1-.037-.149v-.038a.151.151 0 0 1-.094-.09.207.207 0 0 1 .04-.171l-.008-.01a.142.142 0 0 1-.018-.026.113.113 0 0 1 0-.112.128.128 0 0 1 .109-.054h.106V5.045l-.017-.008a.108.108 0 0 0-.034-.013.345.345 0 0 0-.049 0h-.045c-.035 0-.071 0-.08-.042s.013-.079.065-.094a.05.05 0 0 0 .02-.014l.011-.01a.075.075 0 0 0-.067-.029h-.03a.072.072 0 0 1-.038-.008c-.018-.041-.027-.063-.019-.08s.055-.034.153-.061l.001-.017c0-.007-.01-.014-.016-.015-.062-.015-.086-.055-.075-.127a.059.059 0 0 0-.028-.071c-.047-.033-.038-.123 0-.175s.047-.074-.01-.141a.082.082 0 0 1 .007-.112l.015-.012.018-.016c-.013-.06.028-.086.068-.111l.025-.016v-.01-.012a.108.108 0 0 1-.092-.135.783.783 0 0 0 0-.122V3.57a.077.077 0 0 1 .054-.086l-.016-.023a.136.136 0 0 1-.031-.061c0-.013.014-.028.029-.042l.02-.02c-.04-.03-.059-.056-.06-.083s.02-.062.065-.1a.1.1 0 0 1-.063-.1v-.292-.021a.117.117 0 0 0-.039-.107.046.046 0 0 1-.019-.05.112.112 0 0 1 .1-.059c0-.011-.009-.021-.013-.032a.245.245 0 0 1-.023-.07c-.005-.038.017-.063.072-.079a.075.075 0 0 0 .03-.023l.016-.015c-.113-.033-.12-.041-.12-.149v-.103c0-.042.022-.063.089-.086l-.018-.01a.143.143 0 0 0-.046-.021.086.086 0 0 1-.08-.085v-.009c0-.053 0-.1.056-.134v-.287a.086.086 0 0 0-.031-.083.092.092 0 0 1-.024-.059.282.282 0 0 1 0-.037.1.1 0 0 0-.04-.1c-.02-.008-.02-.027-.02-.044v-.021-.054-.107a.066.066 0 0 0-.028-.046c-.041-.028-.072-.055-.05-.118h-.23a.1.1 0 0 1-.1-.051c-.01-.017-.019-.027-.025-.027a.14.14 0 0 1-.11-.054.03.03 0 0 0-.015 0h-.027c-.062 0-.093-.043-.126-.089V.527c-.01-.015-.021-.031-.035-.033-.071-.015-.071-.055-.071-.094V.293c0-.1 0-.1.109-.122-.024-.044-.045-.085.01-.125S16.26 0 16.283 0a.233.233 0 0 1 .079.025h.006a1.168 1.168 0 0 0 .164.058.189.189 0 0 1 .09.055.2.2 0 0 0 .066.046c.009 0 .011.025.013.045s0 .012 0 .017a.114.114 0 0 0 .123.11h.024c.1 0 .1 0 .137.1L17 .495h.273a.112.112 0 0 1-.011.172h.022l.041.005a.054.054 0 0 1 .056.056.365.365 0 0 1 0 .038.122.122 0 0 0 .046.118.042.042 0 0 1 .014.037.078.078 0 0 1-.04.061l.012.018a.073.073 0 0 1 .017.032.119.119 0 0 0 .045.081.12.12 0 0 1 .05.1.128.128 0 0 1-.072.09l-.025.017h-.007c.058.047.083.07.084.093s-.014.037-.047.068c.046.033.068.064.067.095s-.024.059-.069.087a.2.2 0 0 0-.041.039l-.018.02.016.022a.083.083 0 0 0 .027.029c.083.039.086.106.081.178a.939.939 0 0 0 0 .135.142.142 0 0 1-.055.142c.08.07.117.109.112.141s-.036.048-.09.075a.289.289 0 0 0 .033.027.109.109 0 0 1 .06.1c0 .069-.043.094-.116.117l.107.044v.1a.206.206 0 0 1-.069.018.086.086 0 0 1-.069-.037c0 .022 0 .045.006.074a.216.216 0 0 0 .047.009c.04 0 .08.009.093.061s-.016.06-.043.079a.188.188 0 0 0-.036.03c.093.042.088.116.082.188v.035a.081.081 0 0 1-.022.041l-.006.007a.058.058 0 0 1-.014.011c-.007 0-.014.009-.014.014a.14.14 0 0 1-.1.137c.075.05.1.078.1.1s-.026.041-.084.069v.018a.173.173 0 0 1 0 .046.24.24 0 0 1-.021.05L17.4 3.8l.029.029a.217.217 0 0 0 .072.056c.048.02.075.04.076.088s0 .11-.065.137c0 .016 0 .034.006.051a.668.668 0 0 1 0 .1.64.64 0 0 1-.017.1c0 .017-.007.034-.011.052a.238.238 0 0 1-.026.284c.065.08.065.08.037.17a.141.141 0 0 1 .081.116.151.151 0 0 1-.09.121l.028.027a.2.2 0 0 1 .053.063.167.167 0 0 1 0 .075v.032a.116.116 0 0 1-.066.022.223.223 0 0 1-.071-.016l-.015-.005.029.025a.181.181 0 0 1 .054.057.157.157 0 0 1 .005.075v.035c.048.029.071.057.07.083s-.026.052-.076.078c.03.074-.027.1-.082.135a.149.149 0 0 1 .006.028.075.075 0 0 0 .048.07c.026.012.04.029.04.048s-.018.047-.051.066a.125.125 0 0 0-.031.03l-.014.015-.013.013-.041.042v.021a.2.2 0 0 1 .006.049.175.175 0 0 0 .092.155.1.1 0 0 1 .05.106c0 .051-.04.064-.081.071a.034.034 0 0 0-.012.006h-.006a.181.181 0 0 0 .075.143.063.063 0 0 1 .027.046.111.111 0 0 1-.026.085.187.187 0 0 1-.04.031l-.024.016V7.001a.15.15 0 0 0 .058.143.086.086 0 0 1 .034.072.121.121 0 0 1-.056.093l-.053.032a.3.3 0 0 0 0 .058.734.734 0 0 1 .011.111.133.133 0 0 0 .048.117c.03.025.042.042.042.059s-.013.031-.039.051a.156.156 0 0 0-.049.073.125.125 0 0 1-.059.076l.032.047.04.059.073.009.048.006v.153a.141.141 0 0 1-.059.015.1.1 0 0 1-.071-.033.248.248 0 0 0 0 .086.156.156 0 0 1-.026.127s0 .006.006.012a.048.048 0 0 1 .01.019v.02c0 .025.007.053 0 .061a.1.1 0 0 0-.043.114.218.218 0 0 1 0 .052.043.043 0 0 0 .007.035c.066.041.052.095.039.146 0 .012-.006.023-.008.034l.028.011a.391.391 0 0 1 .061.027c.011.007.01.036.01.045 0 .042-.014.047-.133.065a.149.149 0 0 0 .094.186.059.059 0 0 1 .038.049.073.073 0 0 1-.041.064l-.027.017a.241.241 0 0 1-.141.052h-.034l.05.056.021.023.033-.013a.264.264 0 0 1 .072-.022c.019 0 .042.026.052.039s.02.031.018.044-.027.036-.077.068v.075c-.006.053-.012.108-.015.162a.073.073 0 0 0 .037.058c.034.012.062.025.059.065s-.023.056-.064.065a.02.02 0 0 0-.01.006c-.007.035-.011.068-.015.1l-.011.078-.014.007-.014.007.02.012a.164.164 0 0 0 .041.022c.05.014.073.046.062.084 0 .016-.024.029-.043.041l-.025.017c-.011.052-.023.106-.033.161a.043.043 0 0 0 .006.026.093.093 0 0 1 .014.078.108.108 0 0 1-.068.057l.022.017c.012.009.022.016.025.025.013.041.025.085.013.094a.111.111 0 0 0-.044.114v.022a.067.067 0 0 1-.048.076c-.035.011-.04.036-.036.069a.737.737 0 0 1 0 .1v.046l.032.031a.7.7 0 0 1 .08.083.116.116 0 0 1 .017.087c0 .015-.045.028-.063.033a.318.318 0 0 1-.056.008h-.046l.062.042.064.043.01.007a.1.1 0 0 1 .027.023c.008.01.013.029.007.035a.1.1 0 0 0-.006.095c.009.029.017.057 0 .08a.2.2 0 0 0-.049.106.071.071 0 0 1-.02.031.212.212 0 0 0-.016.019l.013.016a.118.118 0 0 0 .04.037.066.066 0 0 1 .037.1c-.006.015-.026.026-.048.037l-.034.02c.072.028.1.083.087.176a.319.319 0 0 0 0 .049.121.121 0 0 1-.071.141c.071.034.071.086.072.141a.327.327 0 0 0 0 .06h.019a.382.382 0 0 1 .051.008.093.093 0 0 1 .045.021.151.151 0 0 1 .029.115.174.174 0 0 1-.048.126.285.285 0 0 0-.044.039c-.037.04-.037.04-.109.052v.091a.081.081 0 0 1-.089.085zM7.223 7.27a.121.121 0 0 1-.1-.058.153.153 0 0 0-.123-.08h-.015a.055.055 0 0 1-.041-.016.059.059 0 0 1-.014-.046.2.2 0 0 0-.051-.154.124.124 0 0 1 .011-.153.144.144 0 0 0 0-.2.193.193 0 0 1 .019-.228c-.05-.069-.079-.111 0-.2a.314.314 0 0 1-.009-.31.217.217 0 0 1 .041-.287c-.079-.041-.077-.106-.075-.17v-.031-.191c0-.064 0-.115.081-.147a.185.185 0 0 1-.083-.158c0-.07.007-.123.078-.157l-.007-.009a.222.222 0 0 0-.026-.03.12.12 0 0 1-.015-.17.188.188 0 0 0 .037-.093v-.343a.032.032 0 0 0 0-.018.264.264 0 0 1-.067-.221v-.057-.769-.256a.157.157 0 0 1 .042-.133.105.105 0 0 0 .023-.06.357.357 0 0 0 0-.082.2.2 0 0 1 .03-.15s0-.009-.007-.017a.111.111 0 0 1-.008-.014c-.027-.066-.026-.112.006-.145a.125.125 0 0 0 .015-.151.478.478 0 0 1-.036-.215v-.085-.2a.366.366 0 0 1 .013-.066c0-.013.007-.026.009-.04s-.005-.02-.008-.029a.288.288 0 0 1-.014-.067v-.136-.085c0-.028 0-.047-.013-.051-.041-.019-.043-.048-.045-.079V.886a.3.3 0 0 1-.173-.1C6.685.771 6.676.758 6.666.758a.169.169 0 0 1-.151-.087.2.2 0 0 0-.1-.054C6.4.609 6.372.6 6.349.59a.19.19 0 0 1-.013-.049.763.763 0 0 1 0-.09V.428a.4.4 0 0 1 .047-.211L6.4.189a.4.4 0 0 1 .086-.117.1.1 0 0 1 .06-.028.075.075 0 0 1 .054.038.805.805 0 0 1 .052.084l.03.053A.035.035 0 0 0 6.7.225h.041a.434.434 0 0 1 .265.124l.046.037a.868.868 0 0 0 .146.1.1.1 0 0 1 .06.109v.12h.008a.1.1 0 0 0 .023.007.141.141 0 0 1 .101.043.121.121 0 0 1 .005.1.251.251 0 0 1-.02.047l-.013.029.031.029a.484.484 0 0 0 .081.067.128.128 0 0 1 .073.1.121.121 0 0 1-.068.1l-.018.009-.013.006A.111.111 0 0 0 7.5 1.3c.026.018.053.036.051.076 0 .061-.019.1-.086.108v.291l.023.014c.031.017.07.039.062.1a.363.363 0 0 0 0 .065.206.206 0 0 1-.01.095.228.228 0 0 1-.076.078c-.015.011-.03.023-.044.036a.158.158 0 0 0 .034.012c.031.009.064.018.058.065s-.026.1-.086.106l.009.026a.343.343 0 0 0 .021.053.154.154 0 0 0 .043.058.111.111 0 0 1 .053.091.109.109 0 0 1-.06.084l-.017.01-.013.008a.114.114 0 0 1-.08.144l.036.03a.6.6 0 0 0 .062.049c.062.041.081.078.069.135s-.045.076-.108.076a.062.062 0 0 0-.029.009l-.026.012c.012.011.022.022.031.033a.149.149 0 0 0 .059.048c.075.022.075.072.075.125v.014c0 .055 0 .111-.077.125-.005 0-.01.007-.016.017s-.009.014-.016.022l.084.014.061.01c0 .018.006.037.01.057l.011.063h.072a.187.187 0 0 1 .042 0 .223.223 0 0 1 .049.021.153.153 0 0 0 .064.023.113.113 0 0 0 .054-.021.13.13 0 0 1 .052-.022h.079a.179.179 0 0 1 .13.046.2.2 0 0 0 .089.034l.051.013a.173.173 0 0 1 .1-.037.157.157 0 0 1 .081.026.353.353 0 0 0 .156.026.124.124 0 0 0 .068-.039l.02-.029.018-.016a.1.1 0 0 1 .034-.024.108.108 0 0 1 .029 0c.03 0 .046.021.059.081l.045.02a.186.186 0 0 1 .083.051A.18.18 0 0 1 9 3.9v.044c.118.028.137.044.135.114s-.017.079-.129.1l.021.019a.347.347 0 0 1 .042.041.074.074 0 0 1 .019.077.077.077 0 0 1-.072.035h-.482a.146.146 0 0 1-.061-.022l-.034-.017a.132.132 0 0 1-.089.125.094.094 0 0 1-.026 0c-.032 0-.048-.022-.064-.046a.114.114 0 0 0-.044-.044l-.012.006a.041.041 0 0 0-.02.014.117.117 0 0 1-.12.066h-.053a.087.087 0 0 1-.062-.03.1.1 0 0 0-.1-.053h-.136a.654.654 0 0 1-.085-.016L7.582 4.3l-.018.019c0 .016.007.031.011.046a.563.563 0 0 1 .015.075c0 .045-.023.069-.084.077.062.1.056.126-.052.219a.163.163 0 0 1 .094.146.111.111 0 0 1-.082.088.317.317 0 0 0-.005.036c0 .024-.005.046-.018.056a.115.115 0 0 0-.044.116v.807a.114.114 0 0 0 .033.092.156.156 0 0 1-.023.255.084.084 0 0 0 .091.048h.014c.031 0 .062 0 .075.039a.139.139 0 0 1-.027.134.133.133 0 0 1-.076.032.084.084 0 0 1-.045-.014l-.029-.02a.061.061 0 0 0 0 .05c.008.016.03.022.055.028h.006a.108.108 0 0 1 .077.066.085.085 0 0 1-.017.083.147.147 0 0 1-.065.039l-.031.013.011.023a.212.212 0 0 1 .026.069 1.022 1.022 0 0 1 0 .172c0 .052-.017.087-.08.091a.139.139 0 0 0-.068.037l-.007.005a.15.15 0 0 1-.096.043zm-5.848-.315h-.162a.168.168 0 0 1-.142-.055.151.151 0 0 1-.1-.051.221.221 0 0 0-.063-.044C.885 6.8.873 6.753.869 6.725s0-.034 0-.051a.22.22 0 0 0-.036-.14.135.135 0 0 1 .005-.134.15.15 0 0 0 .013-.176L.843 6.2a.154.154 0 0 1-.016-.089.077.077 0 0 0-.019-.051.2.2 0 0 1 .006-.323.022.022 0 0 0 0-.012v-.001l-.023-.032a.248.248 0 0 1-.052-.07.059.059 0 0 1 0-.049.144.144 0 0 1 .086-.062C.738 5.492.732 5.448.733 5.4v-.364c0-.1 0-.1.087-.171v-.029a.243.243 0 0 0 0-.064.119.119 0 0 0-.039-.072.1.1 0 0 1-.048-.1v-.105-.21A.1.1 0 0 0 .7 4.193l-.052-.052a1.2 1.2 0 0 0-.089-.081.22.22 0 0 0-.082-.033H.469a.253.253 0 0 0-.037 0c-.027 0-.052 0-.064-.021a.069.069 0 0 1 0-.059.186.186 0 0 1-.053-.048.125.125 0 0 0-.1-.059H.2c-.058 0-.1-.013-.1-.076a.058.058 0 0 0-.034-.044C0 3.69 0 3.64 0 3.582v-.249c0-.042.005-.093.058-.113a.15.15 0 0 1 .052-.008.271.271 0 0 1 .1.021.692.692 0 0 1 .237.17l.079.074a.574.574 0 0 0 .184.093l.021.007.02.006a.079.079 0 0 1 .042.02.458.458 0 0 0 .234.166c.026.008.062.042.063.065a.18.18 0 0 0 .068.116l.012.012c.042.043.067.077.064.108s-.027.055-.087.1v.081l.044.007a.5.5 0 0 1 .08.015c.032.011.05.024.057.042a.078.078 0 0 1-.019.067c-.014.022-.03.043-.045.064l-.022.03c.061.057.063.1.007.188.006.019.025.029.043.039s.047.025.044.058a.652.652 0 0 1-.017.079c0 .014-.007.028-.011.043h.018c.044.007.1.017.1.08a.239.239 0 0 1-.059.11l-.02.026a.585.585 0 0 0-.006.131.419.419 0 0 1-.033.217.273.273 0 0 1 .031.189v.208a.116.116 0 0 1 0 .052.242.242 0 0 0 0 .129.386.386 0 0 1 .008.1h.27a.127.127 0 0 1 .139.077l.066-.02.028-.009.041.088.006.014.019-.016c.012-.01.021-.018.024-.028.017-.061.062-.092.146-.1a.579.579 0 0 1 .064 0h.059a.211.211 0 0 0 .075-.018.171.171 0 0 1 .065-.025c.021 0 .037.017.072.054a.033.033 0 0 0 .011.007l.014.007a.13.13 0 0 1 .138-.091.686.686 0 0 1 .074.006h.022c.047.006.058.032.074.127l.005-.042c0-.028.006-.051.009-.075h.017a.512.512 0 0 1 .1-.014.149.149 0 0 1 .117.05c.049-.032.075-.047.1-.047a.2.2 0 0 1 .1.044.092.092 0 0 0 .047.017.056.056 0 0 0 .041-.031l.026-.028.011-.012.049.027.036.02a.233.233 0 0 1 .132-.048.2.2 0 0 1 .147.073.167.167 0 0 1 .152-.071H3.9A.185.185 0 0 0 4.023 6a.071.071 0 0 1 .046-.022.085.085 0 0 1 .043.015.167.167 0 0 0 .078.03c.026 0 .05-.015.094-.049a.148.148 0 0 1 .041-.02l.02-.008.012.006a.041.041 0 0 1 .017.012c.023.036.035.054.05.054s.031-.018.056-.041a.155.155 0 0 1 .12-.044h.352c.09 0 .1.008.124.091a.066.066 0 0 0 .023.039c.049.031.047.073.039.129h.121c.091 0 .095.012.106.093a.585.585 0 0 1-.028.264c-.021.065-.035.076-.108.081h-.061a.191.191 0 0 0-.035 0 .2.2 0 0 0-.071.026.153.153 0 0 1-.083.028.168.168 0 0 1-.091-.032.089.089 0 0 0-.044-.02h-.04a.185.185 0 0 1-.14-.044.031.031 0 0 0-.02 0 .087.087 0 0 0-.053.016.111.111 0 0 1-.091.032H4.038a.286.286 0 0 0-.074.015l-.041.011-.028.007a.384.384 0 0 1-.09.015c-.3 0-.6 0-.892.006a.15.15 0 0 0-.113.032.179.179 0 0 1-.122.05.2.2 0 0 1-.125-.048l-.072.032a.49.49 0 0 1-.206.061h-.033a.222.222 0 0 1-.061-.02.185.185 0 0 0-.069-.021.138.138 0 0 0-.06.02.159.159 0 0 1-.052.021h-.24a.185.185 0 0 1-.051-.012L1.675 6.8l-.038.034c-.034.03-.068.061-.106.089a.19.19 0 0 1-.089.034.66.66 0 0 1-.067-.002z" class="cls-3"/>
                </g>
            </g>
            <g id="Group_6" transform="translate(8.964)">
                <path id="Clip_5-2" d="M0 0h8.62v13.292H0z" class="cls-1"/>
                <g id="Group_6-2" clip-path="url(#clip-path-2)">
                    <path id="Fill_4" d="M8.214 13.292H8.07a.108.108 0 0 1-.055-.02c-.015-.009-.022-.025-.015-.034a.1.1 0 0 0-.028-.082c-.024-.035-.049-.07-.012-.119l.06-.015.022-.005c-.112-.05-.106-.126-.1-.208a.5.5 0 0 0 0-.081l-.018-.008c-.04-.018-.081-.036-.08-.1s.05-.087.107-.107a.1.1 0 0 0-.051-.043c-.029-.015-.056-.028-.047-.068a.148.148 0 0 1 .022-.045l.012-.019c-.038-.021-.045-.06-.021-.113l.055-.009.034-.006-.018-.222c-.082-.014-.09-.074-.087-.138v-.25-.071c0-.06.005-.115.086-.132a.067.067 0 0 0 .029-.025l.017-.02-.082-.01h-.034c-.029-.086-.029-.088.043-.117a.11.11 0 0 0 .077-.1v-.335a.116.116 0 0 0-.016-.045l-.008-.015a.181.181 0 0 0-.01-.02.081.081 0 0 1-.015-.04v-.251a.105.105 0 0 1 .032-.059l.023-.03a.1.1 0 0 1-.049-.132.067.067 0 0 0 0-.036.122.122 0 0 1 0-.026v-.031a.116.116 0 0 1 .031-.112.093.093 0 0 0 .018-.071.2.2 0 0 1 .018-.084c0-.011.008-.022.012-.033A.087.087 0 0 0 8 9.74a.146.146 0 0 1-.015-.049v-.205V9.4a.029.029 0 0 1 0-.013.238.238 0 0 0 0-.167c-.018-.063.019-.108.119-.143-.086-.02-.136-.052-.121-.149a.25.25 0 0 1-.2.07H7.77a.056.056 0 0 0-.032.019.2.2 0 0 1-.138.063.222.222 0 0 1-.137-.061A.143.143 0 0 0 7.416 9l-.027-.008v.022a.081.081 0 0 1 0 .106.13.13 0 0 1-.078.019.092.092 0 0 1-.067-.018.134.134 0 0 0-.115-.044h-.016a.23.23 0 0 1-.059-.015l-.031-.01c0 .051-.038.072-.079.093a.349.349 0 0 0-.042.025.037.037 0 0 1-.022.005.128.128 0 0 1-.053-.013.244.244 0 0 0-.239 0 .173.173 0 0 1-.078.018.184.184 0 0 1-.14-.063.126.126 0 0 1-.127.06h-.036a.229.229 0 0 0-.055 0 .169.169 0 0 1-.15.09.165.165 0 0 1-.13-.062.066.066 0 0 0-.056-.031h-.029l.013.096v.014l-.045.022a.786.786 0 0 1-.1.044.28.28 0 0 1-.088.017.146.146 0 0 1-.094-.033.112.112 0 0 0-.069-.025.145.145 0 0 0-.069.02.234.234 0 0 1-.1.032h-.01a.131.131 0 0 0-.108.047.6.6 0 0 1-.047.047l-.009.008a.083.083 0 0 1-.123 0 .073.073 0 0 1-.012-.012l-.009-.009a1.343 1.343 0 0 0-.173-.083.215.215 0 0 1-.034-.019l-.025-.015c.022.082-.038.114-.091.142l-.022.012A.137.137 0 0 1 4.5 9.5a.179.179 0 0 1-.11-.05l-.048.013a.606.606 0 0 0-.1.032.163.163 0 0 0-.079.066.123.123 0 0 1-.128.068h-.4a.166.166 0 0 0-.118.036.037.037 0 0 1-.023.006.121.121 0 0 1-.051-.012.238.238 0 0 0-.117-.031.3.3 0 0 0-.122.029.225.225 0 0 1-.091.021.168.168 0 0 1-.091-.027.164.164 0 0 0-.045-.018l-.024-.007a.235.235 0 0 0-.005.045c0 .043 0 .08-.066.087H2.85c-.046 0-.07-.019-.1-.081h-.331a.106.106 0 0 1-.116.081h-.035a.078.078 0 0 0-.067.03.083.083 0 0 1-.053.02.2.2 0 0 0-.1.034.238.238 0 0 1-.1.021h-.047l-.011.013-.064.073-.007.008c-.007.008-.015.018-.022.018h-.011a.474.474 0 0 0-.187.051l-.064.026h-.011a.169.169 0 0 1-.064-.023l-.033-.015-.013-.005a.426.426 0 0 0-.076-.024c.024.053.036.1-.015.132l-.021.016a.131.131 0 0 1-.076.037.091.091 0 0 1-.052-.019.051.051 0 0 0-.025-.007H1.14a.308.308 0 0 1-.12.027.214.214 0 0 1-.126-.041.068.068 0 0 0-.035-.008H.812a.183.183 0 0 1-.148-.072h-.14c-.019 0-.043 0-.048-.01a.14.14 0 0 0-.141-.057.332.332 0 0 1-.069 0l-.013-.004h-.01v-.007a.037.037 0 0 1-.007-.024c.007-.064-.036-.096-.08-.129H.151C.08 9.764.08 9.764.113 9.678.059 9.673.009 9.661 0 9.6v-.006a.181.181 0 0 1 .044-.171l.08-.073.041-.037c.025-.022.042-.032.057-.032s.038.019.058.058C.322 9.3.348 9.28.369 9.28s.04.026.065.077a.566.566 0 0 1 .264.1.151.151 0 0 0 .079.02h.04a.149.149 0 0 1 .156.074l.039-.025a.283.283 0 0 1 .076-.041.269.269 0 0 1 .076-.007h.056a.118.118 0 0 0 .074-.025.119.119 0 0 1 .11-.042h.068a.15.15 0 0 0 .111-.037.05.05 0 0 1 .035-.009h.259l.014-.1v-.033h.174a.32.32 0 0 0 .068-.018l.04-.014.019-.006a.221.221 0 0 1 .056-.014h.162c.009-.059.045-.085.118-.085H2.613a.147.147 0 0 0 .118-.045.051.051 0 0 1 .032-.006h.243a.165.165 0 0 1 .056.017l.015.006.041-.008a.837.837 0 0 1 .095-.016h.039A.157.157 0 0 0 3.382 9c.016-.017.054-.018.085-.019h.197a.132.132 0 0 1 .118-.074.109.109 0 0 1 .08.036.115.115 0 0 0 .047.03.092.092 0 0 0 .055-.032.083.083 0 0 1 .056-.031.07.07 0 0 1 .031.008.1.1 0 0 1 .053.119.1.1 0 0 0 .026 0c.044 0 .062-.037.074-.061V8.97a.108.108 0 0 1 .115-.064h.076a.177.177 0 0 0 .124-.039.023.023 0 0 1 .015 0 .137.137 0 0 1 .058.017.349.349 0 0 1 .06.049l.028.025.021-.02a.1.1 0 0 0 .044-.079c0-.041.023-.066.076-.076h.032a.075.075 0 0 1 .076.051.085.085 0 0 0 .021.026l.009.009h.012a.037.037 0 0 0 .021-.008.389.389 0 0 1 .288-.125.067.067 0 0 0 .042-.008.183.183 0 0 1 .132-.046H5.6a.077.077 0 0 1 .044.022l.008.006.05-.013a.442.442 0 0 1 .074-.017h.194a.135.135 0 0 0 .13-.057c.011-.019.058-.024.072-.024H6.406a.139.139 0 0 0 .11-.041c.007-.008.02-.011.043-.011h.075a.167.167 0 0 0 .119-.036.134.134 0 0 1 .087-.025.285.285 0 0 1 .173.059l.018-.023a.184.184 0 0 0 .035-.054.079.079 0 0 1 .089-.055h.233a.134.134 0 0 0 .1-.033.072.072 0 0 1 .047-.011H7.861a.215.215 0 0 0 .2-.1c-.079-.035-.086-.1-.08-.174v-.119-.053c0-.1 0-.1.105-.131a.114.114 0 0 0-.048-.032c-.031-.014-.06-.027-.058-.07s.013-.069.081-.1a.348.348 0 0 0-.028-.028.133.133 0 0 1-.047-.065.862.862 0 0 1 0-.187L8 7.29c0-.015.02-.03.035-.042l.117-.1.056-.045-.042-.003c-.057-.014-.1-.025-.116-.072a.06.06 0 0 1 .01-.04.215.215 0 0 0 .01-.024c-.085 0-.084-.061-.084-.116v-.017-.029c0-.052 0-.1.064-.123-.013-.106-.013-.106.052-.168l-.035-.006-.06-.01c-.021-.065-.029-.107-.007-.134s.058-.038.119-.048L8.092 6.3a.258.258 0 0 0-.04-.022c-.035-.015-.054-.03-.061-.049A.078.078 0 0 1 8 6.167a.052.052 0 0 0 0-.057.159.159 0 0 1-.011-.1.124.124 0 0 0 0-.106A.057.057 0 0 1 8 5.85a.523.523 0 0 1 .1-.092.1.1 0 0 1 .052-.009h.037l-.019-.032a.272.272 0 0 1-.035-.072.269.269 0 0 1 0-.079v-.038a.151.151 0 0 1-.094-.09.207.207 0 0 1 .041-.171l-.009-.011a.129.129 0 0 1-.018-.025.113.113 0 0 1 0-.112.129.129 0 0 1 .11-.054h.106v-.021l-.017-.008a.108.108 0 0 0-.034-.013.34.34 0 0 0-.049 0h-.042c-.035 0-.071 0-.08-.042s.013-.079.065-.094a.046.046 0 0 0 .021-.014l.011-.01a.075.075 0 0 0-.067-.029h-.03a.072.072 0 0 1-.038-.008c-.018-.041-.027-.063-.019-.08s.055-.034.153-.061l-.009-.012c0-.007-.01-.014-.016-.015-.062-.015-.085-.055-.075-.128a.059.059 0 0 0-.028-.07.091.091 0 0 1-.032-.079.173.173 0 0 1 .032-.1c.047-.065.047-.074-.01-.141a.082.082 0 0 1 .007-.112l.015-.012c.01-.007.018-.014.017-.018-.013-.06.028-.086.067-.111l.025-.017v-.01-.012a.108.108 0 0 1-.092-.135.782.782 0 0 0 0-.113v-.03a.076.076 0 0 1 .054-.086l-.02-.025a.141.141 0 0 1-.03-.059c0-.013.015-.028.03-.043l.02-.019c-.04-.031-.059-.057-.06-.084s.02-.062.065-.1a.1.1 0 0 1-.063-.1v-.287-.018A.119.119 0 0 0 8 2.636a.046.046 0 0 1-.019-.05.112.112 0 0 1 .1-.059c0-.011-.009-.021-.013-.032a.245.245 0 0 1-.023-.07c-.005-.038.017-.063.072-.079a.075.075 0 0 0 .03-.023l.016-.015c-.114-.033-.12-.04-.12-.149v-.104c0-.042.022-.063.089-.086l-.018-.01a.143.143 0 0 0-.046-.021.086.086 0 0 1-.08-.085v-.008c0-.054 0-.1.055-.136v-.286a.086.086 0 0 0-.031-.083.092.092 0 0 1-.024-.059.285.285 0 0 1 0-.037.1.1 0 0 0-.04-.1c-.009-.006-.008-.025-.007-.044v-.021-.054-.107a.069.069 0 0 0-.03-.047C7.867.845 7.833.818 7.858.754h-.23A.1.1 0 0 1 7.525.7C7.518.693 7.508.677 7.5.677a.14.14 0 0 1-.11-.054.026.026 0 0 0-.015 0h-.022c-.063 0-.1-.046-.127-.091L7.213.518C7.2.5 7.193.489 7.181.488 7.118.479 7.118.438 7.118.4V.347.294c0-.1 0-.1.109-.122-.027-.048-.043-.089.01-.13S7.3 0 7.319 0A.233.233 0 0 1 7.4.025h.006a1.145 1.145 0 0 0 .165.058.187.187 0 0 1 .089.055.2.2 0 0 0 .066.047c.01 0 .012.029.014.05v.014a.114.114 0 0 0 .123.11h.024c.1 0 .1 0 .137.1l.011.034h.274A.112.112 0 0 1 8.3.666h.022l.041.005a.054.054 0 0 1 .056.056.365.365 0 0 1 0 .038.122.122 0 0 0 .046.118.042.042 0 0 1 .014.037.078.078 0 0 1-.04.061L8.448 1a.066.066 0 0 1 .017.032.117.117 0 0 0 .046.081.12.12 0 0 1 .049.1.128.128 0 0 1-.072.09l-.031.021c.056.045.083.07.084.093s-.014.036-.047.068c.046.033.068.064.067.094s-.024.059-.069.087a.2.2 0 0 0-.041.039l-.018.02.016.022a.083.083 0 0 0 .027.029c.083.039.086.106.081.178a1.058 1.058 0 0 0 0 .135.142.142 0 0 1-.055.142c.08.07.117.109.113.141s-.036.048-.091.075a.284.284 0 0 0 .033.027.109.109 0 0 1 .061.1c0 .067-.043.093-.117.117l.107.044v.1a.2.2 0 0 1-.069.018.087.087 0 0 1-.069-.038c0 .022 0 .045.006.074a.216.216 0 0 0 .047.009c.04 0 .081.009.093.061s-.016.06-.043.079a.2.2 0 0 0-.036.03c.094.043.088.118.082.19v.032a.079.079 0 0 1-.02.039l-.007.009a.066.066 0 0 1-.014.011c-.008 0-.015.009-.015.015a.14.14 0 0 1-.1.137c.074.05.1.078.1.1s-.026.041-.084.069v.022a.191.191 0 0 1 0 .041.213.213 0 0 1-.018.044l-.023.023.027.027a.218.218 0 0 0 .073.058c.048.02.075.04.076.088s0 .11-.065.137a.442.442 0 0 1 .006.044.78.78 0 0 1 .005.109.59.59 0 0 1-.016.1c0 .018-.008.036-.012.056A.239.239 0 0 1 8.5 4.7c.064.08.064.08.036.17a.141.141 0 0 1 .081.116.151.151 0 0 1-.09.121l.028.027a.2.2 0 0 1 .055.066.157.157 0 0 1 0 .075v.033a.116.116 0 0 1-.066.022.223.223 0 0 1-.071-.016l-.015-.005.028.023a.176.176 0 0 1 .055.058.148.148 0 0 1 .005.075V5.5c.048.029.071.056.07.082s-.025.052-.075.078c.029.074-.028.1-.083.135a.148.148 0 0 1 .006.028.076.076 0 0 0 .048.07c.026.012.04.029.04.048s-.018.047-.051.066a.125.125 0 0 0-.031.03l-.014.015-.036.037-.02.016v.021a.2.2 0 0 1 .006.049.177.177 0 0 0 .093.155.1.1 0 0 1 .049.106c0 .053-.042.065-.08.071a.036.036 0 0 0-.014.006h-.006a.181.181 0 0 0 .075.143.064.064 0 0 1 .028.047.109.109 0 0 1-.027.084.2.2 0 0 1-.042.032l-.022.015V7.004a.149.149 0 0 0 .058.143.086.086 0 0 1 .034.072.121.121 0 0 1-.056.093l-.041.025-.014.008c0 .022.005.042.008.061a.74.74 0 0 1 .01.106.135.135 0 0 0 .048.117c.03.026.043.043.042.059s-.013.031-.04.05a.156.156 0 0 0-.049.073.124.124 0 0 1-.059.076l.032.047.049.066.078.01.044.006v.153a.145.145 0 0 1-.06.015.1.1 0 0 1-.072-.033.254.254 0 0 0 0 .085.158.158 0 0 1-.027.128s0 .006.006.012a.057.057 0 0 1 .011.02v.019c0 .026.007.054 0 .062a.1.1 0 0 0-.043.114.222.222 0 0 1 0 .052c0 .011 0 .03.008.035.065.041.052.094.04.144 0 .012-.006.024-.008.036l.029.011a.4.4 0 0 1 .06.027c.011.007.01.034.01.045 0 .042-.014.047-.133.066a.148.148 0 0 0 .094.185.058.058 0 0 1 .039.048.073.073 0 0 1-.041.064l-.026.017a.241.241 0 0 1-.142.053h-.034l.05.056.021.023.033-.013a.27.27 0 0 1 .073-.022c.017 0 .04.024.051.039s.021.032.018.045-.026.035-.077.068l-.007.063v.006c-.006.055-.013.112-.015.168a.07.07 0 0 0 .036.058c.036.014.062.026.059.065s-.023.056-.064.065a.02.02 0 0 0-.01.006l-.026.178-.027.014.02.013a.154.154 0 0 0 .04.021c.05.014.073.046.063.084 0 .016-.024.029-.044.041l-.025.017-.009.045v.016l-.02.1a.039.039 0 0 0 .007.026.092.092 0 0 1 .014.077.109.109 0 0 1-.069.057l.021.017c.013.009.023.017.026.026.011.033.026.084.013.094a.111.111 0 0 0-.044.114v.022a.066.066 0 0 1-.047.076c-.035.011-.04.035-.036.069a.814.814 0 0 1 0 .1v.042l.03.029a.733.733 0 0 1 .08.085.116.116 0 0 1 .017.087c0 .015-.045.028-.063.033a.3.3 0 0 1-.055.008h-.046l.055.036.071.048.01.007a.1.1 0 0 1 .027.023c.008.01.013.029.007.035a.1.1 0 0 0-.006.095c.009.029.017.057 0 .08a.2.2 0 0 0-.049.106.074.074 0 0 1-.021.033l-.015.018.015.018a.112.112 0 0 0 .038.035.067.067 0 0 1 .038.1c-.007.015-.026.026-.048.038l-.034.02c.072.028.1.083.088.176a.313.313 0 0 0 0 .05.122.122 0 0 1-.071.14c.071.034.071.086.071.141a.327.327 0 0 0 0 .061h.019a.382.382 0 0 1 .051.008.1.1 0 0 1 .045.02.154.154 0 0 1 .029.116.175.175 0 0 1-.047.125.258.258 0 0 0-.045.039c-.037.04-.037.04-.109.052v.091a.08.08 0 0 1-.088.085z" class="cls-3"/>
                </g>
            </g>
            <path id="Fill_7" d="M2.413 4.67a.3.3 0 0 1-.135-.028.219.219 0 0 0-.116-.032.21.21 0 0 0-.117.034l-.006.005s-.006.006-.009.006l-.067.005c-.04 0-.08.007-.12.007a.409.409 0 0 1-.152-.025.031.031 0 0 1-.01-.009.214.214 0 0 1-.107.039.129.129 0 0 1-.091-.041.111.111 0 0 0-.064-.014H1.4c-.063 0-.093-.011-.11-.03s-.021-.048-.017-.1a.11.11 0 0 1 0-.017v-.019l-.064-.056c-.038-.034-.078-.069-.116-.105a.21.21 0 0 1-.079-.169v-.058A.5.5 0 0 0 1 3.819a.393.393 0 0 0 .021-.171.481.481 0 0 1 .01-.138.316.316 0 0 0 0-.141 1.233 1.233 0 0 1-.01-.195v-.025c0-.034 0-.069.006-.1s0-.056.006-.083a.073.073 0 0 0-.013-.043.16.16 0 0 1 .021-.223c-.062-.086-.062-.129 0-.2-.05-.03-.049-.073-.047-.118v-.029-.371C.941 1.923.959 1.868.979 1.8l.01-.033A.706.706 0 0 0 1 1.528v-.052c0-.036-.031-.064-.085-.084s-.12-.05-.178-.077l-.061-.026a.041.041 0 0 1-.01-.008.033.033 0 0 0-.013-.01l-.182-.049L.4 1.2H.382a.154.154 0 0 1-.063-.023.35.35 0 0 0-.069-.038c-.015-.006-.029-.013-.042-.02a.642.642 0 0 1-.182-.15A.14.14 0 0 1 .035.8.181.181 0 0 0 .078.684a.093.093 0 0 1 .084-.1.209.209 0 0 0 .057-.023.3.3 0 0 1 .148-.046.2.2 0 0 1 .116.039.107.107 0 0 0 .053.012h.046C.6.572.614.573.62.58a.183.183 0 0 0 .1.057.226.226 0 0 1 .08.039.052.052 0 0 0 .03.008h.019l.2.045.037.011a.045.045 0 0 1 .027.013.19.19 0 0 0 .153.077c.052 0 .083.05.079.117a.131.131 0 0 1-.008.029v.015l.044.044.1.1c.085.075.1.122.051.218l.02.015a.117.117 0 0 1 .036.033.08.08 0 0 1 .006.069.333.333 0 0 0-.045.27 1.1 1.1 0 0 1 .008.244v.108H1.57A.266.266 0 0 1 1.783 2h.047a.546.546 0 0 0 .06 0h.094a.285.285 0 0 0 .157-.042.381.381 0 0 1 .159-.035c.027 0 .054-.005.079-.01l.073-.013.048-.014.026-.006a.253.253 0 0 1 .062-.011h.333a.208.208 0 0 0 .12-.029.234.234 0 0 1 .116-.021h1.098c.063 0 .1-.013.117-.08a.2.2 0 0 1-.037-.157v-.067a.2.2 0 0 0-.048-.156.058.058 0 0 1-.02-.048.06.06 0 0 1 .033-.042c.038-.022.039-.054.036-.092v-.023a.4.4 0 0 1 0-.121.171.171 0 0 0-.027-.117.258.258 0 0 1-.028-.071c0-.007-.012-.017-.02-.019l-.068-.02a.533.533 0 0 1-.124-.045.388.388 0 0 0-.091-.033.231.231 0 0 1-.138-.075.047.047 0 0 0-.032-.019H3.79a.313.313 0 0 1-.109-.025.506.506 0 0 0-.064-.021.163.163 0 0 1-.1-.061l-.01-.013a.23.23 0 0 0-.089-.078.086.086 0 0 1-.039-.062A.33.33 0 0 1 3.6.022.382.382 0 0 1 3.716 0a.215.215 0 0 1 .132.042.129.129 0 0 0 .072.018h.029a.141.141 0 0 1 .12.056c.008.01.025.028.037.028h.021a.473.473 0 0 1 .125.022.625.625 0 0 0 .088.02.331.331 0 0 1 .184.088l.006.003a.173.173 0 0 0 .076.045.085.085 0 0 1 .059.029.085.085 0 0 1 .009.067.091.091 0 0 0 .05.1.253.253 0 0 1 .139.249.1.1 0 0 0 .028.065.109.109 0 0 1 0 .154.138.138 0 0 0-.032.073v.431c0 .016 0 .033.007.037a.142.142 0 0 1 .065.154.218.218 0 0 0 .011.1.038.038 0 0 1 0 .036.114.114 0 0 0-.017.12c0 .01 0 .02.006.03-.069.024-.073.076-.068.13a.529.529 0 0 1 0 .055v.04a.121.121 0 0 1-.026.092.1.1 0 0 1-.074.025l.031.054a.632.632 0 0 1 .064.129.141.141 0 0 1-.011.079c0 .016-.01.032-.014.05a.1.1 0 0 1 .016.122l-.017.006-.1.037.019.014a.05.05 0 0 0 .02.012c.045.008.076.017.09.037s.012.039 0 .081a.08.08 0 0 1-.044.054c-.068.017-.066.062-.065.11a.549.549 0 0 1 0 .084v.048l.007.008c.02.021.046.05.071.081a.111.111 0 0 1 .033.1c-.008.03-.035.055-.082.075l-.025.011a.145.145 0 0 0 .066.175.1.1 0 0 1 .036.139c-.023.05-.042.1-.061.153l-.008.022s0 .011.005.017v.008c.023.057.033.095.02.12s-.05.039-.113.055l-.025.272V4.46c0 .041-.007.079-.058.094a.131.131 0 0 1-.039.006.105.105 0 0 1-.087-.046.087.087 0 0 0-.092-.038h-.028a.093.093 0 0 0-.053.02c-.05.045-.07.063-.1.063a.29.29 0 0 1-.094-.03.248.248 0 0 1-.116.033.182.182 0 0 1-.127-.062.123.123 0 0 0-.044-.023l-.023-.009c-.033.061-.073.093-.113.093s-.082-.032-.12-.093l-.016.011a.311.311 0 0 0-.043.033.244.244 0 0 1-.162.054.2.2 0 0 1-.149-.053.115.115 0 0 0-.092-.039.434.434 0 0 0-.049 0v.047c-.015.066-.035.082-.1.083h-.355a.131.131 0 0 0-.105.034.15.15 0 0 1-.098.032zm.859-.715a.043.043 0 0 1 .014.006.148.148 0 0 0 .1.033h.075a.109.109 0 0 0 .058-.036l.019-.017a.306.306 0 0 1 .191-.084h.036a.484.484 0 0 0 .064 0H3.929c.025 0 .055 0 .065-.017a.1.1 0 0 1 .088-.04.374.374 0 0 1 .045 0h.032a.122.122 0 0 0 .113-.058c0-.018-.006-.035-.01-.052a.77.77 0 0 1-.016-.107.945.945 0 0 1 0-.1v-.074-.207-.289a.4.4 0 0 1 .016-.089c0-.016.008-.032.012-.05A.231.231 0 0 1 4.25 2.6a.307.307 0 0 0-.01-.163h-.012a.107.107 0 0 0-.024 0h-.736a.1.1 0 0 0-.065.017.149.149 0 0 1-.113.046h-.101a.154.154 0 0 0-.071.014.423.423 0 0 1-.166.037.572.572 0 0 0-.121.018h-.008a.1.1 0 0 1-.041-.014.1.1 0 0 0-.044-.012.08.08 0 0 0-.042.013.162.162 0 0 1-.083.024.173.173 0 0 1-.082-.022.086.086 0 0 0-.042-.012.1.1 0 0 0-.044.011.27.27 0 0 1-.067.017l-.03.006h-.023a.077.077 0 0 0-.044.012.1.1 0 0 1-.065.028.152.152 0 0 1-.083-.034L2.09 2.6l-.036.015-.026.009a.191.191 0 0 0-.046.019.183.183 0 0 1-.1.029.155.155 0 0 1-.089-.028c-.014-.009-.027-.02-.039-.031L1.733 2.6l-.049.014-.074.021a.107.107 0 0 1 0 .161l.007.008c.033.036.068.074.02.116a.087.087 0 0 0-.01.128.136.136 0 0 1 0 .169.073.073 0 0 0 .008.11c.029.025.018.053.006.083v.013a.55.55 0 0 0-.022.206v.084a.015.015 0 0 0 0 .008.121.121 0 0 1 .005.159.064.064 0 0 0-.007.064.089.089 0 0 0 .071.047h1.431a.482.482 0 0 0 .1-.015l.044-.009.006-.009z" class="cls-3" transform="translate(12.349 23.183)"/>
            <path id="Fill_9" d="M1.116 4.084a.17.17 0 0 1-.037 0C1.02 4.067 1 4.032 1 3.941a.135.135 0 0 1-.081-.147.066.066 0 0 0-.013-.038.469.469 0 0 1-.036-.114.306.306 0 0 0-.083-.164v-.054a.519.519 0 0 1 0-.127.167.167 0 0 1 .049-.068c.012-.013.026-.027.039-.043l-.008-.034C.858 3.125.846 3.093.838 3.06c0-.016-.009-.033-.014-.049a.633.633 0 0 1-.034-.164v-.108A1.2 1.2 0 0 1 .8 2.38a.084.084 0 0 0 0-.045c0-.006 0-.013-.006-.019-.018-.075-.007-.1.075-.139a.19.19 0 0 1-.078-.184V1.5a.172.172 0 0 1 0-.018.06.06 0 0 0 0-.038.414.414 0 0 1-.045-.106.589.589 0 0 0-.025-.069.344.344 0 0 1-.041-.162A.127.127 0 0 0 .634 1C.6.97.588.948.586.927S.6.883.627.852a.207.207 0 0 1 .024-.02h.006L.615.784.574.743a.5.5 0 0 1-.145.028A.2.2 0 0 1 .284.71.144.144 0 0 0 .221.681C.091.648.049.6.054.473V.468A.133.133 0 0 0 .019.351C-.018.315.005.235.033.192A.483.483 0 0 1 .268.029L.283.023A.285.285 0 0 1 .394 0a.254.254 0 0 1 .14.041.188.188 0 0 0 .1.016h.02a.25.25 0 0 1 .04 0h.012A.259.259 0 0 1 .8.081.118.118 0 0 1 .865.2a.777.777 0 0 0 0 .08v.04L.9.317.95.312h.027c.065 0 .085.023.086.1.143.028.143.028.131.191l.254.017a.128.128 0 0 1 .111-.068.162.162 0 0 1 .079.023A.165.165 0 0 0 1.7.6c.018 0 .03-.016.056-.05a.183.183 0 0 1 .152-.059.252.252 0 0 1 .16.056L2.11.514a.32.32 0 0 1 .2-.093h.033a.049.049 0 0 0 .03-.006A.2.2 0 0 1 2.5.369a.274.274 0 0 1 .144.048c.041-.074.073-.107.149-.107A.637.637 0 0 1 2.9.321a.142.142 0 0 1 .116-.084.2.2 0 0 1 .12.056.175.175 0 0 1 .144-.057h.159A.327.327 0 0 1 3.7.309c.034-.011.034-.036.033-.06a.176.176 0 0 1 0-.021c0-.038.019-.055.045-.055h.038a.112.112 0 0 0 .068-.03.126.126 0 0 1 .059-.03h.032A.164.164 0 0 0 4.087.08a.145.145 0 0 1 .095-.032.2.2 0 0 1 .155.073.458.458 0 0 0 .1.089.286.286 0 0 1 .008.033c.008.039.016.079.072.094a.032.032 0 0 1 .018.021 1.181 1.181 0 0 0 .03.117.515.515 0 0 1 .028.271.22.22 0 0 1-.03.062l-.02.035a.221.221 0 0 0 .043.029c.037.021.076.043.077.1a.159.159 0 0 1-.094.159h.042c.053 0 .1 0 .12.068.023.089 0 .145-.063.18l.013.049.048.184a.109.109 0 0 1-.074.138v.185c.1.048.089.138.082.225v.038a.335.335 0 0 0 0 .069c.016.126-.034.193-.168.224H4.551a.159.159 0 0 0 0 .059c0 .048.005.1-.08.111a.262.262 0 0 0 .042.048.132.132 0 0 1 .055.1c0 .071-.051.1-.127.126.076.039.125.082.113.16a.329.329 0 0 0 0 .055.143.143 0 0 1-.054.14l.023.025a.311.311 0 0 1 .048.059.3.3 0 0 1 .025.069c0 .012.007.024.011.037h.019a.187.187 0 0 1 .126.061.111.111 0 0 1 .033.112v.02c0 .05-.054.06-.092.063-.065.005-.131.006-.195.006H4.4a.236.236 0 0 0-.172.046.114.114 0 0 1-.066.013H3.9a.117.117 0 0 0-.056.01.146.146 0 0 1-.071.021.131.131 0 0 1-.071-.023.054.054 0 0 0-.025-.009.032.032 0 0 0-.019 0 .268.268 0 0 1-.17.052.971.971 0 0 1-.107-.008l-.067-.007h-.043a.106.106 0 0 0-.085.033.068.068 0 0 1-.049.024.061.061 0 0 1-.037-.014.145.145 0 0 0-.1-.031h-.017a.581.581 0 0 1-.083-.021l-.045-.012c-.029.011-.055.022-.078.033a.242.242 0 0 0-.058.034.18.18 0 0 1-.116.051.184.184 0 0 1-.126-.063.082.082 0 0 0-.041-.021H1.418c-.1 0-.124.02-.143.112a.16.16 0 0 1-.159.122zm1.214-.948a.162.162 0 0 1 .071.032.566.566 0 0 1 .1.079.072.072 0 0 0 .048.027.056.056 0 0 0 .03-.01c.011-.134.044-.172.149-.172a.184.184 0 0 1 .105.025.109.109 0 0 1 .027.061.271.271 0 0 0 .008.03l.037-.038a.263.263 0 0 1 .086-.07.177.177 0 0 1 .068-.01h.111a.1.1 0 0 1 .073.041.108.108 0 0 0 .06.039c.053-.051.092-.08.127-.08s.065.026.106.067c.007-.053.042-.058.078-.063a.148.148 0 0 0 .047-.011.88.88 0 0 1 .131-.05.841.841 0 0 0 .15-.06c-.03-.063.009-.1.048-.142.01-.011.021-.021.029-.032-.062-.1-.06-.12.015-.215a.193.193 0 0 0 .027-.052c0-.01.008-.019.012-.028-.056-.026-.086-.044-.091-.066s.011-.046.042-.085a.141.141 0 0 0 .034-.077v-.009a.209.209 0 0 0-.034-.154.087.087 0 0 1-.024-.07A.065.065 0 0 1 4.038 2c-.069-.071-.067-.073-.015-.136a.312.312 0 0 0 .037-.059l.014-.026c-.062-.047-.092-.073-.1-.1s.017-.054.059-.1a.112.112 0 0 0 .023-.088v-.036a.156.156 0 0 1 .049-.155c.015-.013.008-.052 0-.088a.528.528 0 0 0-.018-.062.391.391 0 0 1-.021-.083 1.659 1.659 0 0 1 0-.166V.833L4.027.817C3.988.8 3.955.786 3.921.773a.09.09 0 0 0-.029-.006.015.015 0 0 0-.01 0 .193.193 0 0 1-.138.044.451.451 0 0 0-.061.006.2.2 0 0 1-.178.183.112.112 0 0 1-.083-.039l-.041.013A.321.321 0 0 1 3.3.995a.188.188 0 0 0-.118.042.353.353 0 0 1-.232.1.3.3 0 0 1-.044 0H2.9a.12.12 0 0 0-.058.022.143.143 0 0 1-.079.024.2.2 0 0 1-.083-.021l-.012-.005a.174.174 0 0 0-.06-.02h-.235a.149.149 0 0 0-.064.021.161.161 0 0 1-.081.023.18.18 0 0 1-.087-.025.209.209 0 0 0-.1-.026.34.34 0 0 0-.11.021c-.028.01-.055.023-.081.036a.747.747 0 0 1-.1.043c-.078.025-.157.046-.241.068l-.117.031.02.046c.01.024.02.046.032.068a.08.08 0 0 1-.011.113.176.176 0 0 0-.025.029l-.009.012c.088.065.088.065.049.161a.13.13 0 0 1 .032.157A.5.5 0 0 1 1.4 2l-.036.04a.151.151 0 0 1 .014.179c-.054.1-.048.126.04.191l.014.009a.12.12 0 0 1 .019.013.1.1 0 0 1 .007.154.283.283 0 0 1-.042.036l-.016.012c0 .042-.009.082-.013.123l-.012.114c.081.068.081.068.1.122l-.021.017-.04.031c.062.008.1.013.108.032s0 .06-.038.145a1.405 1.405 0 0 0 .162.007.72.72 0 0 1 .275.036.3.3 0 0 0 .015-.032c.009-.022.018-.042.033-.048a.361.361 0 0 1 .13-.033.169.169 0 0 1 .067.014.4.4 0 0 0 .063.019l.021.005c.042-.035.059-.05.08-.05z" class="cls-3" transform="translate(2.805 9.172)"/>
            <path id="Fill_11" d="M2.887 2.938a.14.14 0 0 1-.135-.052c-.015-.017-.035-.04-.054-.041-.055 0-.082-.036-.115-.1-.04.046-.072.079-.1.115a1.7 1.7 0 0 1-.278.262c-.035.029-.062.067-.1.1s-.089.092-.153.075c-.079.064-.147.125-.221.179-.04.029-.061.059-.048.1a.081.081 0 0 1-.057.1c-.114.053-.154.163-.227.248a.041.041 0 0 0-.006.028c0 .059-.039.081-.088.087-.143.02-.206.136-.3.213-.012.018-.005.054-.011.078a.269.269 0 0 1-.041.093c-.061.071-.083.07-.167.012H.759c-.018.1-.1.151-.177.207-.048.035-.068.068-.036.126a.269.269 0 0 1-.07.022.118.118 0 0 0-.1.049c-.047.062-.119.036-.18.028a.071.071 0 0 1-.06-.095c0-.01-.007-.023-.014-.033a.841.841 0 0 1-.1-.146.159.159 0 0 1 .006-.127.229.229 0 0 0 .028-.118c0-.1.018-.117.132-.135C.2 4.1.312 4.058.392 4c.035-.027.078-.046.117-.07.01-.007.024-.02.022-.03-.008-.076.057-.111.1-.155.077-.075.16-.146.24-.219.017-.015.042-.034.043-.052 0-.084.072-.11.133-.142a.2.2 0 0 0 .1-.086.045.045 0 0 1 .019-.022c.107-.048.146-.152.216-.23 0 0 .012-.009.012-.014 0-.067.05-.082.109-.081 0-.044 0-.092.017-.12s.072-.041.119-.064l.017-.076.129-.014a.192.192 0 0 1 .068-.148c.052-.048.114-.03.178-.041-.016-.1.035-.141.117-.186a.926.926 0 0 0 .2-.175.442.442 0 0 0 .128-.175c.011-.033.061-.057.1-.08s.074-.041.111-.062c.011-.006.027-.018.026-.026 0-.065.066-.112.049-.18a.041.041 0 0 1 .008-.036.609.609 0 0 0 .133-.2.143.143 0 0 1 .133-.07L3 1.171l.194-.12a.156.156 0 0 1 .064-.2.5.5 0 0 0 .076-.08c-.044 0-.073-.01-.1-.01h-.226a.175.175 0 0 0-.13.039.338.338 0 0 1-.343-.04c-.08.068-.153.152-.282.137-.1-.012-.222.036-.29-.077-.012.007-.02.009-.023.013-.023.033 0 .094-.059.1a.24.24 0 0 1-.187-.014.07.07 0 0 0-.112.016.214.214 0 0 1-.211.089.055.055 0 0 0-.039.009.243.243 0 0 1-.18.045.121.121 0 0 0-.052.022.148.148 0 0 1-.168 0 .354.354 0 0 0-.277 0 .19.19 0 0 1-.266-.059c-.08.051-.124.049-.189-.013A.531.531 0 0 0 .063.909.1.1 0 0 1 0 .8a1.347 1.347 0 0 0 0-.22.19.19 0 0 1 .082-.174C.094.395.108.379.123.378c.1-.007.21-.04.3.044A.129.129 0 0 0 .5.455.324.324 0 0 0 .743.407c.052-.044.1 0 .143.043A.217.217 0 0 1 1.08.367c.014 0 .03-.012.046-.017.031-.01.066-.032.092-.025a1.333 1.333 0 0 0 .3 0c.059 0 .121.014.169-.042.013-.02.056-.018.086-.019h.2c.068-.095.12-.1.226-.028.061-.068.152-.036.234-.047a1.063 1.063 0 0 1 .143 0 .128.128 0 0 0 .111-.035c.013-.015.05-.015.076-.015h.277a.131.131 0 0 0 .081-.028.193.193 0 0 1 .159-.048c.049 0 .1.011.135-.043.019-.029.061-.023.092 0s.034.029.057.049A.17.17 0 0 1 3.735 0a.467.467 0 0 0 .1 0 .238.238 0 0 1 .246.1c.022.032.053.033.088.036.082.008.1.055.053.117-.022.028-.041.047-.067.08.066.069.053.132-.025.186a.037.037 0 0 0-.017.023c0 .088-.077.126-.138.174a.19.19 0 0 0-.073.1c-.017.057-.034.127-.114.14.008.124.03.154-.118.188v.073a.108.108 0 0 1-.054.1.235.235 0 0 0-.094.138.242.242 0 0 1-.16.179.149.149 0 0 0-.091.137.551.551 0 0 0 0 .057.116.116 0 0 1-.064.119.126.126 0 0 0-.076.151c.022.069-.036.1-.095.125l.07.059.073.062v.059a.11.11 0 0 0 .1.1.117.117 0 0 1 .111.067.315.315 0 0 0 .073.065c.075.063.152.123.224.189a.112.112 0 0 0 .094.044.244.244 0 0 1 .222.068.28.28 0 0 0 .085.04l-.011.053c.069.042.137.076.2.12s.112.1.171.147a.225.225 0 0 0 .062.025.345.345 0 0 1 .081.031c.047.034.065.094.129.116.014 0 .015.045.024.074a.254.254 0 0 1 .177.074.091.091 0 0 0 .073.021.154.154 0 0 1 .146.047c.028.023.058.043.085.068s.042.036.04.051c-.008.068.041.1.083.145a.073.073 0 0 1-.005.123c-.029.025-.063.046-.1.075l.066.122a.074.074 0 0 1-.065.118.606.606 0 0 0-.172.042.461.461 0 0 1-.211 0c-.063-.009-.05-.076-.074-.121-.1.015-.153-.046-.215-.1-.019-.017-.045-.042-.064-.039-.063.007-.092-.032-.128-.064a.931.931 0 0 0-.252-.171.413.413 0 0 1-.137-.112.273.273 0 0 0-.2-.12.128.128 0 0 1-.091-.051c-.043-.075-.133-.093-.191-.149a.508.508 0 0 0-.242-.122c-.039-.009-.052-.033-.071-.061a.768.768 0 0 0-.24-.264c-.031-.018-.042-.067-.069-.116" class="cls-3" transform="translate(9.902 16.853)"/>
            <path id="Fill_13" d="M2.276 4.909a.039.039 0 0 1-.036-.018.094.094 0 0 0-.093-.046h-.04c-.076 0-.076 0-.122-.072a.159.159 0 0 1-.079.024.141.141 0 0 1-.106-.065.183.183 0 0 0-.134-.076.175.175 0 0 1-.074-.037.38.38 0 0 0-.039-.025c-.027-.015-.056-.029-.084-.042a.573.573 0 0 1-.247-.179.094.094 0 0 0-.051-.024c-.11-.025-.147-.064-.159-.164L.984 4.2a.12.12 0 0 1-.051.017.113.113 0 0 1-.065-.038c-.094-.084-.2-.181-.3-.28a.151.151 0 0 1-.038-.077.235.235 0 0 1 0-.058v-.018l-.051-.027a.913.913 0 0 1-.119-.07C.343 3.636.339 3.6.336 3.576a.216.216 0 0 1 0-.026.071.071 0 0 0-.036-.08.032.032 0 0 1-.01-.026.181.181 0 0 0-.048-.13L.232 3.3A1.413 1.413 0 0 1 .1 3.07a.2.2 0 0 1-.006-.095v-.048C.041 2.9.011 2.866 0 2.833a.137.137 0 0 1 .042-.11l-.007-.016a.189.189 0 0 1-.025-.041.078.078 0 0 1 .023-.1c.055-.031.054-.076.053-.124V2.39v-.139a.148.148 0 0 1 .075-.155c0-.011-.005-.022-.008-.033C.136 2 .122 1.95.194 1.912A.021.021 0 0 0 .2 1.9c-.01-.085.049-.1.11-.119l.021-.006v-.041c0-.051 0-.1.069-.131a.289.289 0 0 1 .211-.191c.007-.041.039-.06.07-.079A.241.241 0 0 0 .73 1.3l.02-.02a.293.293 0 0 1 .164-.1c.022 0 .043-.028.061-.049l.013-.015a.159.159 0 0 1 .13-.061h.021c.082 0 .12-.039.124-.127S1.277.819 1.384.8a.314.314 0 0 0 .039-.014l.026-.009-.034-.018A.126.126 0 0 1 1.36.721a.191.191 0 0 1-.01-.1c0-.055.042-.059.083-.063a.282.282 0 0 0 .04-.008V.536a.2.2 0 0 0 .011-.027.056.056 0 0 1 .06-.054h.048a.088.088 0 0 0 .067-.013c.013-.013.016-.034.013-.073V.341c-.008-.056-.013-.113.045-.148L1.7.164a.2.2 0 0 1-.027-.057.083.083 0 0 1 .011-.072A.093.093 0 0 1 1.757 0H2.048c.056 0 .086.011.1.03s0 .054-.026.109l.014.013a.141.141 0 0 0 .048.038c.055.021.082.032.087.05s-.014.039-.043.08c.018.056.064.058.109.059a.237.237 0 0 1 .057.007l.025.123.02-.009a.082.082 0 0 0 .025-.018C2.5.44 2.519.423 2.539.423s.045.022.077.074h.145a.166.166 0 0 1 .115.036.151.151 0 0 0 .083.024c.054 0 .091.01.11.031s.019.047.011.1a.115.115 0 0 1-.005.022l-.006.017c.061.014.061.054.061.1a.231.231 0 0 0 0 .045h.015a.082.082 0 0 0 .022 0 .219.219 0 0 1 .039 0 .282.282 0 0 1 .191.1l.068.06c.023.02.073.063.106.1a.192.192 0 0 1 .035.066l.016.039a.128.128 0 0 1 .116.063c.006.009.014.019.021.02.1.011.1.073.094.147l.038.027c.086.061.167.118.165.236.082.046.161.109.126.226a.234.234 0 0 1 .1.2.229.229 0 0 1-.137.171.079.079 0 0 0 .008.063.076.076 0 0 0 .053.025.082.082 0 0 1 .06.037.049.049 0 0 1 0 .045.123.123 0 0 0 0 .09c0 .009 0 .017.006.026.014.074.02.15-.073.2a.283.283 0 0 0-.07.062l-.03.032a.131.131 0 0 1 0 .192.294.294 0 0 1-.061.383v.014a.188.188 0 0 1 .006.021.086.086 0 0 1-.009.073.092.092 0 0 1-.07.027h-.1v.19c0 .056 0 .1-.076.116-.015 0-.036.017-.037.028 0 .062-.037.075-.085.075H3.6a.088.088 0 0 0 .018.021.112.112 0 0 1 .042.053.176.176 0 0 1-.012.08c0 .009-.006.019-.008.028a.246.246 0 0 1-.011.03.185.185 0 0 0-.013.039.071.071 0 0 1-.07.069h-.013a.07.07 0 0 1-.071-.056.136.136 0 0 0-.036-.061v.013a.141.141 0 0 0-.008.034.062.062 0 0 1-.053.07.063.063 0 0 0-.04.023.438.438 0 0 1-.194.175l-.041.025-.143.085-.063.037c-.021.049-.034.07-.057.07a.169.169 0 0 1-.071-.03l-.032.028c-.025.022-.048.043-.074.062a.14.14 0 0 1-.084.028.123.123 0 0 1-.075-.024.115.115 0 0 0-.077-.025.233.233 0 0 0-.055.008v.016a.128.128 0 0 1-.006.036.085.085 0 0 1-.077.049zM2.2 4.15a.055.055 0 0 1 .041.018.09.09 0 0 0 .092.057h.064l.031-.028a.143.143 0 0 1 .058-.041.114.114 0 0 1 .027 0 .36.36 0 0 1 .057.006l.041.006c0-.067.049-.077.1-.077h.051a.109.109 0 0 0 .115-.069.106.106 0 0 1 .067-.055.313.313 0 0 0 .2-.13.246.246 0 0 1 .06-.058c.041-.032.083-.065.072-.128a.05.05 0 0 1 .026-.039.248.248 0 0 0 .1-.1.417.417 0 0 1 .05-.064.127.127 0 0 0 .025-.078v-.023c0-.047 0-.091.052-.121a.029.029 0 0 0 .004-.026c-.01-.058.019-.094.09-.112v-.009-.007a.148.148 0 0 1-.036-.134c.007-.04.038-.056.071-.072l.011-.006a.1.1 0 0 0 .058-.1v-.091-.1A.165.165 0 0 1 3.8 2.39v-.009l-.04-.026a.179.179 0 0 1-.07-.055.141.141 0 0 1 0-.085c0-.016 0-.032.005-.049l-.015-.007a.269.269 0 0 1-.056-.034c-.028-.024-.057-.055-.052-.072.02-.065-.022-.088-.066-.111h-.008c-.075-.04-.075-.04-.054-.118h-.026c-.078 0-.082-.057-.085-.118v-.023h-.007a.228.228 0 0 1-.211-.144.383.383 0 0 0-.034-.052l-.105-.071-.154-.1a.027.027 0 0 1-.008-.016.053.053 0 0 0 0-.01l-.041-.069-.026-.043-.007.008-.006.007-.093-.025-.083-.023a.3.3 0 0 1-.148.043.3.3 0 0 1-.145-.04.2.2 0 0 0-.093-.019.207.207 0 0 0-.093.019 1.281 1.281 0 0 0-.268.2.208.208 0 0 1-.14.069h-.022l-.023.024-.058.058a.357.357 0 0 1-.029.023.171.171 0 0 0-.049.047.131.131 0 0 1-.124.07h-.02a.2.2 0 0 0-.032 0h-.018a.257.257 0 0 1-.185.187l-.018.038a.128.128 0 0 1-.038.057c-.045.03-.067.06-.065.091L.863 2.1l-.038.026c-.011.036-.019.069-.026.1a.447.447 0 0 1-.061.165.319.319 0 0 0-.052.186v.009a.1.1 0 0 0 .036.1.1.1 0 0 1 .032.065v.035A.106.106 0 0 0 .8 2.9c.007 0 .007.019.006.033v.155c0 .044 0 .089.063.108.008 0 .012.015.017.027l.005.013a.171.171 0 0 1 .008.02.079.079 0 0 0 .019.037c.039.033.04.069 0 .12h.03a.151.151 0 0 1 .119.039l.029.031a.559.559 0 0 0 .177.146.1.1 0 0 1 .04.043c.025.045.056.1.11.1h.023a.089.089 0 0 1 .073.045c.016.02.032.04.061.04.067 0 .1.033.1.1a.215.215 0 0 1 .183.071.049.049 0 0 0 .029.012h.017l.028.01a.393.393 0 0 1 .071.03l.032.02a.253.253 0 0 0 .133.05H2.2z" class="cls-3" transform="translate(10.372 2.472)"/>
            <path id="Fill_15" d="M.889 7.226a.12.12 0 0 1-.095-.058.156.156 0 0 0-.129-.08H.65a.054.054 0 0 1-.04-.015.06.06 0 0 1-.01-.047.2.2 0 0 0-.051-.154.123.123 0 0 1 .012-.153.145.145 0 0 0 0-.2.2.2 0 0 1 .019-.228c-.049-.069-.079-.111 0-.2a.314.314 0 0 1-.015-.307.218.218 0 0 1 .035-.29c-.08-.041-.077-.107-.075-.171v-.077-.144c0-.044 0-.116.081-.146A.184.184 0 0 1 .527 4.8c0-.068.006-.122.078-.157l-.01-.012A.314.314 0 0 0 .571 4.6a.122.122 0 0 1-.016-.171.2.2 0 0 0 .038-.093v-.343a.02.02 0 0 0 0-.013.262.262 0 0 1-.063-.218v-.06-.769-.256a.16.16 0 0 1 .042-.133.105.105 0 0 0 .023-.06.357.357 0 0 0 0-.082.2.2 0 0 1 .03-.15s0-.009-.006-.016a.083.083 0 0 1-.008-.015c-.028-.065-.026-.112 0-.145a.123.123 0 0 0 .019-.15.5.5 0 0 1-.035-.226v-.04-.238a.344.344 0 0 1 .015-.075c0-.012.006-.023.009-.035s-.006-.02-.009-.03a.252.252 0 0 1-.01-.066V1.09.995C.6.963.591.948.581.944.541.929.539.9.537.868V.842a.3.3 0 0 1-.173-.1C.349.722.34.714.332.714A.17.17 0 0 1 .181.627a.2.2 0 0 0-.1-.054C.061.565.038.557.015.546A.193.193 0 0 1 0 .5a.769.769 0 0 1 0-.109v-.01A.388.388 0 0 1 .049.173L.065.145A.4.4 0 0 1 .152.028.1.1 0 0 1 .212 0a.075.075 0 0 1 .057.038.873.873 0 0 1 .056.091l.026.046A.038.038 0 0 0 .37.181h.041A.43.43 0 0 1 .674.3l.047.039a.869.869 0 0 0 .146.1.1.1 0 0 1 .06.111c0 .031 0 .063-.006.1v.022H.93A.093.093 0 0 0 .951.68a.141.141 0 0 1 .105.041.121.121 0 0 1 .005.1.245.245 0 0 1-.018.044L1.029.9l.031.027a.485.485 0 0 0 .081.067.128.128 0 0 1 .072.1.121.121 0 0 1-.068.1l-.018.009-.013.006a.111.111 0 0 0 .047.047c.026.018.054.036.051.076 0 .062-.02.1-.087.108v.291l.023.014c.031.017.07.039.062.1a.354.354 0 0 0 0 .065.2.2 0 0 1-.01.09.225.225 0 0 1-.075.077c-.016.012-.031.024-.045.037a.146.146 0 0 0 .034.013c.031.009.062.018.057.064s-.026.1-.086.106l.009.026a.436.436 0 0 0 .021.053.175.175 0 0 0 .043.058.11.11 0 0 1 .053.091.109.109 0 0 1-.06.084l-.021.013h-.008a.115.115 0 0 1-.081.144l.039.032a.594.594 0 0 0 .06.046c.062.042.081.079.068.135s-.045.076-.108.076a.057.057 0 0 0-.028.009l-.027.013c.012.011.022.022.031.033a.149.149 0 0 0 .059.048c.074.022.074.072.074.125V3.3c0 .055 0 .111-.077.125-.005 0-.01.007-.016.017s-.009.014-.016.022l.118.02h.027l.02.12h.072a.186.186 0 0 1 .042 0 .219.219 0 0 1 .05.022.148.148 0 0 0 .063.023.113.113 0 0 0 .054-.021.13.13 0 0 1 .054-.012h.079a.179.179 0 0 1 .13.046.186.186 0 0 0 .088.034l.051.013a.175.175 0 0 1 .1-.037.157.157 0 0 1 .081.026.356.356 0 0 0 .156.026.128.128 0 0 0 .07-.04l.027-.022A.181.181 0 0 0 2.4 3.64a.1.1 0 0 1 .034-.023.105.105 0 0 1 .028 0c.03 0 .046.021.059.081.014.008.03.014.045.021a.185.185 0 0 1 .082.051.178.178 0 0 1 .02.1v.042c.119.028.138.045.136.114s-.017.079-.13.1l.021.019a.349.349 0 0 1 .042.041.074.074 0 0 1 .019.077.077.077 0 0 1-.072.035h-.482a.146.146 0 0 1-.061-.022l-.034-.017a.132.132 0 0 1-.089.125.094.094 0 0 1-.026 0c-.032 0-.048-.022-.064-.046a.114.114 0 0 0-.044-.044l-.012.006c-.009 0-.017.008-.02.014a.119.119 0 0 1-.12.066h-.053a.087.087 0 0 1-.062-.03.1.1 0 0 0-.1-.053h-.142A.651.651 0 0 1 1.3 4.27l-.049-.011-.008.008-.01.011.01.039a.507.507 0 0 1 .016.082c0 .045-.022.069-.084.077.061.1.056.126-.052.219a.164.164 0 0 1 .095.147.11.11 0 0 1-.081.087.338.338 0 0 0-.005.035c0 .024-.006.047-.019.057a.117.117 0 0 0-.043.117V5.949a.115.115 0 0 0 .034.091.157.157 0 0 1-.023.255.084.084 0 0 0 .087.046h.014c.031 0 .062 0 .075.039a.139.139 0 0 1-.027.134.131.131 0 0 1-.075.032.084.084 0 0 1-.045-.014l-.016-.012-.019-.012a.06.06 0 0 0 0 .049c.008.016.03.022.055.028h.006a.109.109 0 0 1 .077.066.086.086 0 0 1-.016.083.152.152 0 0 1-.066.038l-.031.015.012.024a.205.205 0 0 1 .026.068 1.115 1.115 0 0 1 0 .172c0 .045-.012.087-.08.091a.133.133 0 0 0-.066.036l-.008.006a.152.152 0 0 1-.095.042z" class="cls-3" transform="translate(6.334 .044)"/>
            <g id="Group_19" transform="translate(0 3.212)">
                <path id="Clip_18-2" d="M0 0h5.365v3.743H0z" class="cls-1"/>
                <g id="Group_19-2" clip-path="url(#clip-path-3)">
                    <path id="Fill_17" d="M3.005 2.9c.1-.063.1-.063.2 0 .033.02.062.026.09-.006l.037-.04.086.048a.193.193 0 0 1 .279.024.19.19 0 0 1 .195-.068.184.184 0 0 0 .14-.066.064.064 0 0 1 .089-.007c.077.045.1.041.172-.019a.286.286 0 0 1 .061-.028c.013.008.024.012.029.019.045.068.046.07.1.016a.156.156 0 0 1 .117-.052h.348c.091 0 .1.01.124.091a.069.069 0 0 0 .023.039c.049.03.047.073.039.129l.122.006c.091 0 .095.013.106.093a.578.578 0 0 1-.027.264c-.021.063-.035.076-.108.081h-.092a.192.192 0 0 0-.071.026.143.143 0 0 1-.174 0 .1.1 0 0 0-.044-.021c-.063-.005-.129.007-.181-.045a.082.082 0 0 0-.073.011.133.133 0 0 1-.112.032h-.441a.632.632 0 0 0-.115.026.613.613 0 0 1-.118.021c-.3 0-.595 0-.892.005a.152.152 0 0 0-.113.032.18.18 0 0 1-.247 0 .622.622 0 0 1-.31.091c-.045-.005-.086-.04-.13-.041S2.036 3.6 2 3.6a1.915 1.915 0 0 1-.236 0 .429.429 0 0 1-.086-.022c-.044.038-.091.083-.144.122a.19.19 0 0 1-.089.034 1.59 1.59 0 0 1-.164 0c-.074 0-.152.013-.207-.052-.075 0-.1-.071-.165-.1-.025.004-.037-.04-.04-.069a.333.333 0 0 0-.039-.191.134.134 0 0 1 .007-.134.151.151 0 0 0 .013-.176.2.2 0 0 1-.024-.112.072.072 0 0 0-.02-.051.2.2 0 0 1 .007-.323s0-.012.006-.017a.475.475 0 0 1-.081-.1c-.02-.048.014-.085.085-.111-.082-.018-.091-.06-.09-.111v-.364c0-.1 0-.105.087-.171a.447.447 0 0 0 0-.093.116.116 0 0 0-.038-.071.1.1 0 0 1-.048-.1v-.316A.106.106 0 0 0 .7.981C.654.937.61.888.559.847a.232.232 0 0 0-.09-.034C.418.8.339.822.366.728.309.7.292.619.211.621.152.623.1.616.094.545A.056.056 0 0 0 .065.508C0 .478 0 .426 0 .37V.121C0 .073.009.026.059.009a.21.21 0 0 1 .147.012 1.114 1.114 0 0 1 .316.244.639.639 0 0 0 .208.1c.021.008.05.011.062.026a.461.461 0 0 0 .234.166c.027.008.062.042.063.065a.207.207 0 0 0 .08.128c.089.091.089.127-.023.2v.081a.942.942 0 0 1 .124.022c.065.021.075.054.038.109-.021.032-.045.062-.067.093.062.058.063.1.007.188.014.044.094.039.087.1a1.231 1.231 0 0 1-.027.122c.044.009.123.011.116.084a.323.323 0 0 1-.079.136c-.022.111.022.231-.039.348.055.078.026.171.028.261v.111a.219.219 0 0 1 0 .076c-.028.076.013.146.006.23h.23c.074 0 .145-.006.179.076l.095-.03.048.1c.019-.019.039-.029.043-.044.02-.072.077-.093.145-.1h.123a.211.211 0 0 0 .08-.013c.077-.039.077-.04.141.027a.134.134 0 0 0 .025.014c.041-.114.141-.092.234-.082.046 0 .058.03.074.126l.013-.117c.086-.017.168-.04.235.033" class="cls-3"/>
                </g>
            </g>
            <path id="Fill_20" d="M1.009 5.744a.1.1 0 0 0 .043.112c.076.056.068.13-.008.184-.111.078-.125.146-.054.255a.091.091 0 0 1 .016.044v.191l-.124.033c.017.066.082.021.116.057.006.051.031.109-.025.161-.012.011-.012.035-.013.054-.008.079-.007.079-.068.123.089.052.1.138-.012.236a.121.121 0 0 1-.035.152.3.3 0 0 0-.042.1l.02.009c.007-.008.015-.015.021-.024a.05.05 0 0 1 .071-.015.1.1 0 0 1 .042.056.524.524 0 0 1 0 .115c0 .092-.025.106-.135.086-.01.055-.04.1-.012.167.02.033-.01.06-.058.06H.68c.021.048.034.108-.021.121a.4.4 0 0 1-.208 0C.394 8 .385 7.935.416 7.874L.311 7.76a.064.064 0 0 1 0-.1c.039-.03.033-.06.033-.094v-.182a.107.107 0 0 1 .045-.108c.036-.024.029-.073 0-.111-.075-.105-.069-.151.035-.224A.142.142 0 0 0 .4 6.915c-.07-.045-.087-.132-.014-.17.109-.058.107-.141.1-.235v-.335c0-.053-.01-.109.04-.152a.042.042 0 0 0 .01-.035.127.127 0 0 1 .085-.16l-.004-.089c-.073-.008-.088-.058-.079-.122s.079-.073.124-.117L.6 5.483A.083.083 0 0 1 .536 5.4v-.144c0-.074 0-.143.1-.163A.228.228 0 0 0 .6 5.047a.15.15 0 0 1-.068-.141c0-.05.014-.1-.038-.142a.45.45 0 0 1 .02-.279.128.128 0 0 0 .018-.061.764.764 0 0 0 0-.23.119.119 0 0 1 .086-.159c-.1-.106-.102-.114-.051-.235-.067 0-.082-.042-.078-.1S.5 3.572.5 3.505c0-.037-.01-.074-.01-.111v-.278A.57.57 0 0 1 .52 3c-.055-.088-.047-.162.03-.21a.244.244 0 0 1-.013-.081.509.509 0 0 0 0-.179.147.147 0 0 1 .106-.184c-.109-.044-.112-.12-.108-.2s0-.179 0-.268c0-.039.029-.078.029-.117s-.027-.078-.027-.117c0-.124.009-.248.01-.372S.542 1.043.538.929C.538.917.536.9.528.894.457.842.492.781.509.71H.4C.359.71.312.717.291.665A.037.037 0 0 0 .26.65.087.087 0 0 1 .153.6C.145.585.109.579.084.574.015.561.006.554 0 .487 0 .449.007.41 0 .372a.166.166 0 0 1 .1-.2V.141A.1.1 0 0 1 .115.017a.182.182 0 0 1 .166.006C.342.06.4.1.461.14.483.154.5.18.527.181a.289.289 0 0 1 .191.092C.734.288.757.31.776.309.861.3.891.371.937.413.958.431.951.475.96.522c.063.064.064.095.012.192a.105.105 0 0 0 0 .1.169.169 0 0 1 .032.117v.383a.086.086 0 0 0 .037.083c.087.06.082.119-.008.176a.275.275 0 0 0-.029.025c.032.032.072.056.086.09.025.059-.04.06-.077.072-.013.04.014.104-.042.14-.008.005 0 .042.011.057A.223.223 0 0 0 1.037 2c.09.065.088.137-.005.2L1 2.226c.033.046.128.049.1.125a.415.415 0 0 1-.055.084c.013.02.047.048.051.08s-.032.08-.075.1a.093.093 0 0 0-.05.133.264.264 0 0 1 .056.007c.024.008.057.016.066.033s0 .062-.037.08a.416.416 0 0 1-.045.018c-.013.092.029.191-.063.263.137.044.155.064.153.172 0 .161 0 .162-.145.2.07.068.052.151.053.232a1.415 1.415 0 0 1 0 .162.711.711 0 0 1-.038.122c.045.031.041.09.04.151v.536c0 .077-.034.155 0 .229a.607.607 0 0 1 .074.063c.024.027 0 .053-.014.078a.027.027 0 0 0 0 .027c.039.045.023.1.028.147.007.072 0 .135-.1.154.136.1.137.247 0 .318" class="cls-3" transform="translate(16.394 14.553)"/>
            <path id="Fill_22" d="M0 .051A.477.477 0 0 1 .108 0a.1.1 0 0 1 .079.022.073.073 0 0 1 0 .069.169.169 0 0 1-.178.062A.451.451 0 0 1 0 .1a.388.388 0 0 1 0-.049" class="cls-3" transform="translate(11.383 9.691)"/>
            <path id="Fill_24" d="M.1.018c-.046.074-.046.074-.1 0z" class="cls-3" transform="translate(17.206 5.819)"/>
            <path id="Fill_26" d="M.052 0c.011.026.022.051.031.076 0 0-.022.012-.024.01C.042.067.026.046.01.026L.052 0" class="cls-3" transform="translate(17.367 12.886)"/>
            <path id="Fill_28" d="M0 .029h.087v.024L.009.066C.007.053.005.041 0 .029" class="cls-3" transform="translate(16.276 .313)"/>
            <path id="Fill_30" d="M0 .087L.09 0C.1.067.051.077 0 .087" class="cls-3" transform="translate(17.174 6.019)"/>
            <path id="Fill_32" d="M.087.028L.023.083.006.067.062.006l.025.022" class="cls-3" transform="translate(15.417 8.987)"/>
            <path id="Fill_34" d="M.009.028l.082.024v.015L0 .056z" class="cls-3" transform="translate(7.943 3.802)"/>
        </g>
    </g>
</svg>
